<mxfile host="app.diagrams.net" agent="Mozilla/5.0 (Windows NT 10.0; Win64; x64) AppleWebKit/537.36 (KHTML, like Gecko) Chrome/136.0.0.0 Safari/537.36" version="27.0.3">
  <diagram name="Page-1" id="c4acf3e9-155e-7222-9cf6-157b1a14988f">
    <mxGraphModel dx="1937" dy="1138" grid="0" gridSize="10" guides="1" tooltips="1" connect="1" arrows="1" fold="1" page="0" pageScale="1" pageWidth="850" pageHeight="1100" background="none" math="0" shadow="0">
      <root>
        <mxCell id="0" />
        <mxCell id="1" parent="0" />
        <mxCell id="U1-uT79BPtRjiYRfhZJT-1" value="&lt;p style=&quot;margin:0px;margin-top:4px;text-align:center;&quot;&gt;&lt;span style=&quot;background-color: transparent; text-align: left; color: rgb(0, 64, 133);&quot;&gt;IConfigureNamedOptions&lt;/span&gt;&lt;span style=&quot;background-color: transparent; color: light-dark(rgb(0, 0, 0), rgb(255, 255, 255)); text-align: left;&quot;&gt;&amp;lt;&lt;/span&gt;&lt;span style=&quot;background-color: transparent; text-align: left; color: rgb(255, 20, 147); font-weight: bold;&quot;&gt;in&lt;/span&gt;&lt;span style=&quot;background-color: transparent; color: light-dark(rgb(0, 0, 0), rgb(255, 255, 255)); text-align: left;&quot;&gt; TOptions&amp;gt;&lt;/span&gt;&lt;/p&gt;&lt;hr size=&quot;1&quot; style=&quot;border-style:solid;&quot;&gt;&lt;p style=&quot;margin:0px;margin-left:4px;&quot;&gt;&lt;span style=&quot;color: rgb(25, 25, 112); font-weight: bold; background-color: transparent;&quot;&gt;Configure(&lt;/span&gt;&lt;/p&gt;&lt;p style=&quot;margin:0px;margin-left:4px;&quot;&gt;&lt;span style=&quot;color: rgb(25, 25, 112); font-weight: bold; background-color: transparent;&quot;&gt;&lt;span style=&quot;white-space: pre;&quot;&gt;&#x9;&lt;/span&gt;&lt;/span&gt;&lt;span style=&quot;background-color: transparent; color: rgb(255, 0, 0);&quot;&gt;string&lt;/span&gt;&lt;span style=&quot;background-color: transparent; color: light-dark(rgb(0, 0, 0), rgb(255, 255, 255));&quot;&gt;? name,&amp;nbsp;&lt;/span&gt;&lt;/p&gt;&lt;p style=&quot;margin:0px;margin-left:4px;&quot;&gt;&lt;span style=&quot;background-color: transparent; color: light-dark(rgb(0, 0, 0), rgb(255, 255, 255));&quot;&gt;&lt;span style=&quot;white-space: pre;&quot;&gt;&#x9;&lt;/span&gt;TOptions options)&lt;/span&gt;&lt;/p&gt;&lt;p style=&quot;margin:0px;margin-left:4px;&quot;&gt;&lt;span style=&quot;background-color: transparent; color: light-dark(rgb(0, 0, 0), rgb(255, 255, 255));&quot;&gt;: void&lt;/span&gt;&lt;/p&gt;" style="verticalAlign=top;align=left;overflow=fill;html=1;whiteSpace=wrap;" parent="1" vertex="1">
          <mxGeometry x="1054" y="87" width="220" height="100" as="geometry" />
        </mxCell>
        <mxCell id="h_6TPCCMnjTKN2K01A-q-1" value="&lt;p style=&quot;margin:0px;margin-top:4px;text-align:center;&quot;&gt;&lt;span style=&quot;background-color: transparent; text-align: left; color: rgb(0, 64, 133);&quot;&gt;IConfigureOptions&lt;/span&gt;&lt;span style=&quot;background-color: transparent; color: light-dark(rgb(0, 0, 0), rgb(255, 255, 255)); text-align: left;&quot;&gt;&amp;lt;&lt;/span&gt;&lt;span style=&quot;background-color: transparent; text-align: left; color: rgb(255, 20, 147); font-weight: bold;&quot;&gt;in&lt;/span&gt;&lt;span style=&quot;background-color: transparent; color: light-dark(rgb(0, 0, 0), rgb(255, 255, 255)); text-align: left;&quot;&gt; TOptions&amp;gt;&lt;/span&gt;&lt;/p&gt;&lt;hr size=&quot;1&quot; style=&quot;border-style:solid;&quot;&gt;&lt;p style=&quot;margin:0px;margin-left:4px;&quot;&gt;&lt;span style=&quot;color: rgb(25, 25, 112); font-weight: bold; background-color: transparent;&quot;&gt;Configure(&lt;/span&gt;&lt;/p&gt;&lt;p style=&quot;margin:0px;margin-left:4px;&quot;&gt;&lt;span style=&quot;background-color: transparent; color: light-dark(rgb(0, 0, 0), rgb(255, 255, 255));&quot;&gt;&lt;span style=&quot;white-space: pre;&quot;&gt;&#x9;&lt;/span&gt;TOptions options)&lt;/span&gt;&lt;/p&gt;&lt;p style=&quot;margin:0px;margin-left:4px;&quot;&gt;&lt;span style=&quot;background-color: transparent; color: light-dark(rgb(0, 0, 0), rgb(255, 255, 255));&quot;&gt;: void&lt;/span&gt;&lt;/p&gt;" style="verticalAlign=top;align=left;overflow=fill;html=1;whiteSpace=wrap;" parent="1" vertex="1">
          <mxGeometry x="1304" y="87" width="220" height="100" as="geometry" />
        </mxCell>
        <mxCell id="h_6TPCCMnjTKN2K01A-q-2" value="&lt;p style=&quot;margin:0px;margin-top:4px;text-align:center;&quot;&gt;&lt;span style=&quot;background-color: transparent; text-align: left; color: rgb(0, 64, 133);&quot;&gt;IOptions&lt;/span&gt;&lt;span style=&quot;background-color: transparent; color: light-dark(rgb(0, 0, 0), rgb(255, 255, 255)); text-align: left;&quot;&gt;&amp;lt;&lt;/span&gt;&lt;span style=&quot;background-color: transparent; text-align: left; color: rgb(255, 20, 147); font-weight: bold;&quot;&gt;in&lt;/span&gt;&lt;span style=&quot;background-color: transparent; color: light-dark(rgb(0, 0, 0), rgb(255, 255, 255)); text-align: left;&quot;&gt; TOptions&amp;gt;&lt;/span&gt;&lt;/p&gt;&lt;hr size=&quot;1&quot; style=&quot;border-style:solid;&quot;&gt;&lt;p style=&quot;margin:0px;margin-left:4px;&quot;&gt;Value:&amp;nbsp;TOptions&lt;/p&gt;" style="verticalAlign=top;align=left;overflow=fill;html=1;whiteSpace=wrap;" parent="1" vertex="1">
          <mxGeometry x="43" y="135" width="218" height="60" as="geometry" />
        </mxCell>
        <mxCell id="h_6TPCCMnjTKN2K01A-q-3" value="&lt;p style=&quot;margin:0px;margin-top:4px;text-align:center;&quot;&gt;&lt;span style=&quot;color: rgb(0, 64, 133);&quot;&gt;IOptionsChangeTokenSource&lt;/span&gt;&lt;span style=&quot;background-color: transparent; color: light-dark(rgb(0, 0, 0), rgb(255, 255, 255)); text-align: left;&quot;&gt;&amp;lt;&lt;/span&gt;&lt;span style=&quot;background-color: transparent; text-align: left; color: rgb(255, 20, 147); font-weight: bold;&quot;&gt;in&lt;/span&gt;&lt;span style=&quot;background-color: transparent; color: light-dark(rgb(0, 0, 0), rgb(255, 255, 255)); text-align: left;&quot;&gt; TOptions&amp;gt;&lt;/span&gt;&lt;/p&gt;&lt;hr size=&quot;1&quot; style=&quot;border-style:solid;&quot;&gt;&lt;p style=&quot;margin:0px;margin-left:4px;&quot;&gt;&lt;span style=&quot;color: rgb(25, 25, 112); font-weight: bold; background-color: transparent;&quot;&gt;&lt;span style=&quot;font-weight: normal;&quot;&gt;Name:&amp;nbsp;&lt;/span&gt;&lt;/span&gt;&lt;span style=&quot;background-color: transparent; color: rgb(255, 0, 0);&quot;&gt;string&lt;/span&gt;&lt;span style=&quot;background-color: transparent; color: light-dark(rgb(0, 0, 0), rgb(255, 255, 255));&quot;&gt;?&lt;/span&gt;&lt;/p&gt;&lt;p style=&quot;margin:0px;margin-left:4px;&quot;&gt;&lt;span style=&quot;color: rgb(25, 25, 112); font-weight: bold; background-color: transparent;&quot;&gt;&lt;br&gt;&lt;/span&gt;&lt;/p&gt;&lt;p style=&quot;margin:0px;margin-left:4px;&quot;&gt;&lt;span style=&quot;color: rgb(25, 25, 112); font-weight: bold;&quot;&gt;GetChangeToken&lt;/span&gt;(&lt;/p&gt;&lt;p style=&quot;margin:0px;margin-left:4px;&quot;&gt;):&amp;nbsp;&lt;span style=&quot;color: rgb(0, 64, 133); background-color: transparent;&quot;&gt;IChangeToken&lt;/span&gt;&lt;/p&gt;" style="verticalAlign=top;align=left;overflow=fill;html=1;whiteSpace=wrap;" parent="1" vertex="1">
          <mxGeometry x="2940" y="35" width="260" height="100" as="geometry" />
        </mxCell>
        <mxCell id="h_6TPCCMnjTKN2K01A-q-4" value="&lt;p style=&quot;margin:0px;margin-top:4px;text-align:center;&quot;&gt;&lt;span style=&quot;color: rgb(0, 64, 133); background-color: transparent; text-align: left;&quot;&gt;IOptionsFactory&lt;/span&gt;&lt;span style=&quot;background-color: transparent; color: light-dark(rgb(0, 0, 0), rgb(255, 255, 255)); text-align: left;&quot;&gt;&amp;lt;&lt;/span&gt;&lt;span style=&quot;background-color: transparent; color: light-dark(rgb(0, 0, 0), rgb(255, 255, 255)); text-align: left;&quot;&gt;TOptions&amp;gt;&lt;/span&gt;&lt;/p&gt;&lt;hr size=&quot;1&quot; style=&quot;border-style:solid;&quot;&gt;&lt;p style=&quot;margin:0px;margin-left:4px;&quot;&gt;&lt;span style=&quot;color: rgb(25, 25, 112); font-weight: bold;&quot;&gt;Create&lt;/span&gt;(&lt;/p&gt;&lt;p style=&quot;margin:0px;margin-left:4px;&quot;&gt;&lt;span style=&quot;color: rgb(255, 0, 0);&quot;&gt;&lt;span style=&quot;white-space: pre;&quot;&gt;&#x9;&lt;/span&gt;string&lt;/span&gt; name&lt;/p&gt;&lt;p style=&quot;margin:0px;margin-left:4px;&quot;&gt;):&amp;nbsp;TOptions&lt;/p&gt;" style="verticalAlign=top;align=left;overflow=fill;html=1;whiteSpace=wrap;" parent="1" vertex="1">
          <mxGeometry x="-411" y="135" width="220" height="87" as="geometry" />
        </mxCell>
        <mxCell id="h_6TPCCMnjTKN2K01A-q-5" value="&lt;p style=&quot;margin:0px;margin-top:4px;text-align:center;&quot;&gt;&lt;span style=&quot;color: rgb(0, 64, 133);&quot;&gt;OptionsMonitor&lt;/span&gt;&lt;span style=&quot;background-color: transparent; color: light-dark(rgb(0, 0, 0), rgb(255, 255, 255)); text-align: left;&quot;&gt;&amp;lt;&lt;/span&gt;&lt;span style=&quot;background-color: transparent; color: light-dark(rgb(0, 0, 0), rgb(255, 255, 255)); text-align: left;&quot;&gt;TOptions&amp;gt;&lt;/span&gt;&lt;/p&gt;&lt;hr size=&quot;1&quot; style=&quot;border-style:solid;&quot;&gt;&lt;p style=&quot;margin:0px;margin-left:4px;&quot;&gt;&lt;br&gt;&lt;/p&gt;" style="verticalAlign=top;align=left;overflow=fill;html=1;whiteSpace=wrap;" parent="1" vertex="1">
          <mxGeometry x="532" y="252" width="338" height="59" as="geometry" />
        </mxCell>
        <mxCell id="h_6TPCCMnjTKN2K01A-q-6" value="&lt;p style=&quot;margin:0px;margin-top:4px;text-align:center;&quot;&gt;&lt;span style=&quot;color: rgb(0, 64, 133);&quot;&gt;IOptionsMonitorCache&lt;/span&gt;&lt;span style=&quot;background-color: transparent; color: light-dark(rgb(0, 0, 0), rgb(255, 255, 255)); text-align: left;&quot;&gt;&amp;lt;&lt;/span&gt;&lt;span style=&quot;background-color: transparent; color: light-dark(rgb(0, 0, 0), rgb(255, 255, 255)); text-align: left;&quot;&gt;TOptions&amp;gt;&lt;/span&gt;&lt;/p&gt;&lt;hr size=&quot;1&quot; style=&quot;border-style:solid;&quot;&gt;&lt;p style=&quot;margin:0px;margin-left:4px;&quot;&gt;&lt;span style=&quot;color: rgb(25, 25, 112); font-weight: bold;&quot;&gt;GetOrAdd&lt;/span&gt;(&lt;/p&gt;&lt;p style=&quot;margin:0px;margin-left:4px;&quot;&gt;&lt;span style=&quot;color: rgb(255, 0, 0);&quot;&gt;&lt;span style=&quot;white-space: pre;&quot;&gt;&#x9;&lt;/span&gt;string&lt;/span&gt;? name,&amp;nbsp;&lt;/p&gt;&lt;p style=&quot;margin:0px;margin-left:4px;&quot;&gt;&lt;span style=&quot;color: rgb(0, 64, 133);&quot;&gt;&lt;span style=&quot;white-space: pre;&quot;&gt;&#x9;&lt;/span&gt;Func&lt;/span&gt;&amp;lt;TOptions&amp;gt; createOptions&lt;/p&gt;&lt;p style=&quot;margin:0px;margin-left:4px;&quot;&gt;): TOptions&lt;/p&gt;&lt;p style=&quot;margin:0px;margin-left:4px;&quot;&gt;&lt;br&gt;&lt;/p&gt;&lt;p style=&quot;margin:0px;margin-left:4px;&quot;&gt;&lt;span style=&quot;color: rgb(25, 25, 112); font-weight: bold;&quot;&gt;TryAdd&lt;/span&gt;(&lt;/p&gt;&lt;p style=&quot;margin:0px;margin-left:4px;&quot;&gt;&lt;span style=&quot;color: rgb(255, 0, 0);&quot;&gt;&lt;span style=&quot;white-space: pre;&quot;&gt;&#x9;&lt;/span&gt;string&lt;/span&gt;? name,&amp;nbsp;&lt;/p&gt;&lt;p style=&quot;margin:0px;margin-left:4px;&quot;&gt;&lt;span style=&quot;white-space: pre;&quot;&gt;&#x9;&lt;/span&gt;TOptions options&lt;/p&gt;&lt;p style=&quot;margin:0px;margin-left:4px;&quot;&gt;):&amp;nbsp;&lt;span style=&quot;color: rgb(255, 0, 0); font-weight: bold; background-color: transparent;&quot;&gt;bool&lt;/span&gt;&lt;/p&gt;&lt;p style=&quot;margin:0px;margin-left:4px;&quot;&gt;&lt;span style=&quot;color: rgb(255, 0, 0); font-weight: bold; background-color: transparent;&quot;&gt;&lt;br&gt;&lt;/span&gt;&lt;/p&gt;&lt;p style=&quot;margin:0px;margin-left:4px;&quot;&gt;&lt;span style=&quot;color: rgb(25, 25, 112); font-weight: bold;&quot;&gt;TryRemove&lt;/span&gt;(&lt;/p&gt;&lt;p style=&quot;margin:0px;margin-left:4px;&quot;&gt;&lt;span style=&quot;color: rgb(255, 0, 0);&quot;&gt;&lt;span style=&quot;white-space: pre;&quot;&gt;&#x9;&lt;/span&gt;string&lt;/span&gt;? name&lt;/p&gt;&lt;p style=&quot;margin:0px;margin-left:4px;&quot;&gt;):&amp;nbsp;&lt;span style=&quot;color: rgb(255, 0, 0); font-weight: 700; background-color: transparent;&quot;&gt;bool&lt;/span&gt;&lt;/p&gt;&lt;p style=&quot;margin:0px;margin-left:4px;&quot;&gt;&lt;span style=&quot;color: rgb(255, 0, 0); font-weight: 700; background-color: transparent;&quot;&gt;&lt;br&gt;&lt;/span&gt;&lt;/p&gt;&lt;p style=&quot;margin:0px;margin-left:4px;&quot;&gt;&lt;span style=&quot;color: rgb(25, 25, 112); font-weight: bold;&quot;&gt;Clear&lt;/span&gt;(&lt;/p&gt;&lt;p style=&quot;margin:0px;margin-left:4px;&quot;&gt;):&amp;nbsp;&lt;span style=&quot;color: rgb(255, 0, 0); font-weight: 700; background-color: transparent;&quot;&gt;&lt;/span&gt;&lt;span style=&quot;color: rgb(255, 0, 0); background-color: transparent;&quot;&gt;void&lt;/span&gt;&lt;/p&gt;" style="verticalAlign=top;align=left;overflow=fill;html=1;whiteSpace=wrap;" parent="1" vertex="1">
          <mxGeometry x="-711" y="-50" width="240" height="270" as="geometry" />
        </mxCell>
        <mxCell id="h_6TPCCMnjTKN2K01A-q-7" value="&lt;p style=&quot;margin:0px;margin-top:4px;text-align:center;&quot;&gt;&lt;span style=&quot;color: rgb(0, 64, 133); background-color: transparent; text-align: left;&quot;&gt;IOptionsSnapshot&lt;/span&gt;&lt;span style=&quot;background-color: transparent; color: light-dark(rgb(0, 0, 0), rgb(255, 255, 255)); text-align: left;&quot;&gt;&amp;lt;&lt;/span&gt;&lt;span style=&quot;background-color: transparent; text-align: left; color: rgb(255, 20, 147); font-weight: bold;&quot;&gt;in&lt;/span&gt;&lt;span style=&quot;background-color: transparent; color: light-dark(rgb(0, 0, 0), rgb(255, 255, 255)); text-align: left;&quot;&gt; TOptions&amp;gt;&lt;/span&gt;&lt;/p&gt;&lt;hr size=&quot;1&quot; style=&quot;border-style:solid;&quot;&gt;&lt;p style=&quot;margin:0px;margin-left:4px;&quot;&gt;&lt;span style=&quot;color: rgb(25, 25, 112); font-weight: bold;&quot;&gt;Get&lt;/span&gt;(&lt;span style=&quot;background-color: transparent; color: rgb(255, 0, 0);&quot;&gt;string&lt;/span&gt;&lt;span style=&quot;background-color: transparent; color: light-dark(rgb(0, 0, 0), rgb(255, 255, 255));&quot;&gt;? name&lt;/span&gt;&lt;span style=&quot;background-color: transparent; color: light-dark(rgb(0, 0, 0), rgb(255, 255, 255));&quot;&gt;):&amp;nbsp;TOptions&lt;/span&gt;&lt;/p&gt;" style="verticalAlign=top;align=left;overflow=fill;html=1;whiteSpace=wrap;" parent="1" vertex="1">
          <mxGeometry x="291" y="135" width="210" height="60" as="geometry" />
        </mxCell>
        <mxCell id="h_6TPCCMnjTKN2K01A-q-8" value="&lt;p style=&quot;margin:0px;margin-top:4px;text-align:center;&quot;&gt;&lt;span style=&quot;color: rgb(0, 64, 133); background-color: transparent; text-align: left;&quot;&gt;I&lt;/span&gt;&lt;span style=&quot;color: rgb(0, 64, 133);&quot;&gt;PostConfigureOptions&lt;/span&gt;&lt;span style=&quot;background-color: transparent; color: light-dark(rgb(0, 0, 0), rgb(255, 255, 255)); text-align: left;&quot;&gt;&amp;lt;&lt;/span&gt;&lt;span style=&quot;background-color: transparent; text-align: left; color: rgb(255, 20, 147); font-weight: bold;&quot;&gt;in&lt;/span&gt;&lt;span style=&quot;background-color: transparent; color: light-dark(rgb(0, 0, 0), rgb(255, 255, 255)); text-align: left;&quot;&gt; TOptions&amp;gt;&lt;/span&gt;&lt;/p&gt;&lt;hr size=&quot;1&quot; style=&quot;border-style:solid;&quot;&gt;&lt;p style=&quot;margin:0px;margin-left:4px;&quot;&gt;&lt;span style=&quot;color: rgb(25, 25, 112); font-weight: bold;&quot;&gt;PostConfigure&lt;/span&gt;(&lt;/p&gt;&lt;p style=&quot;margin:0px;margin-left:4px;&quot;&gt;&lt;span style=&quot;color: rgb(255, 0, 0);&quot;&gt;&lt;span style=&quot;white-space: pre;&quot;&gt;&#x9;&lt;/span&gt;string&lt;/span&gt;? name,&amp;nbsp;&lt;/p&gt;&lt;p style=&quot;margin:0px;margin-left:4px;&quot;&gt;&lt;span style=&quot;white-space: pre;&quot;&gt;&#x9;&lt;/span&gt;TOptions options&lt;/p&gt;&lt;p style=&quot;margin:0px;margin-left:4px;&quot;&gt;):&amp;nbsp;&lt;span style=&quot;color: rgb(255, 0, 0); background-color: transparent;&quot;&gt;void&lt;/span&gt;&lt;span style=&quot;background-color: transparent; color: light-dark(rgb(0, 0, 0), rgb(255, 255, 255));&quot;&gt;&amp;nbsp;&lt;/span&gt;&lt;/p&gt;" style="verticalAlign=top;align=left;overflow=fill;html=1;whiteSpace=wrap;" parent="1" vertex="1">
          <mxGeometry x="1567" y="87" width="210" height="100" as="geometry" />
        </mxCell>
        <mxCell id="h_6TPCCMnjTKN2K01A-q-9" value="&lt;p style=&quot;margin:0px;margin-top:4px;text-align:center;&quot;&gt;&lt;span style=&quot;color: rgb(0, 64, 133); background-color: transparent; text-align: left;&quot;&gt;IStartupValidator&lt;/span&gt;&lt;/p&gt;&lt;hr size=&quot;1&quot; style=&quot;border-style:solid;&quot;&gt;&lt;p style=&quot;margin:0px;margin-left:4px;&quot;&gt;&lt;span style=&quot;color: rgb(25, 25, 112); font-weight: bold;&quot;&gt;Validate&lt;/span&gt;(&lt;/p&gt;&lt;p style=&quot;margin:0px;margin-left:4px;&quot;&gt;):&amp;nbsp;&lt;span style=&quot;color: rgb(255, 0, 0); background-color: transparent;&quot;&gt;void&lt;/span&gt;&lt;/p&gt;" style="verticalAlign=top;align=left;overflow=fill;html=1;whiteSpace=wrap;" parent="1" vertex="1">
          <mxGeometry x="3380" y="50" width="140" height="70" as="geometry" />
        </mxCell>
        <mxCell id="h_6TPCCMnjTKN2K01A-q-10" value="&lt;p style=&quot;margin:0px;margin-top:4px;text-align:center;&quot;&gt;&lt;span style=&quot;background-color: transparent; text-align: left; color: rgb(0, 64, 133);&quot;&gt;IValidateOptions&lt;/span&gt;&lt;span style=&quot;background-color: transparent; color: light-dark(rgb(0, 0, 0), rgb(255, 255, 255)); text-align: left;&quot;&gt;&amp;lt;TOptions&amp;gt;&lt;/span&gt;&lt;/p&gt;&lt;hr size=&quot;1&quot; style=&quot;border-style:solid;&quot;&gt;&lt;p style=&quot;margin:0px;margin-left:4px;&quot;&gt;&lt;span style=&quot;color: rgb(25, 25, 112); font-weight: bold;&quot;&gt;Validate&lt;/span&gt;(&lt;/p&gt;&lt;p style=&quot;margin:0px;margin-left:4px;&quot;&gt;&lt;span style=&quot;color: rgb(255, 0, 0);&quot;&gt;&lt;span style=&quot;white-space: pre;&quot;&gt;&#x9;&lt;/span&gt;string&lt;/span&gt;? name,&amp;nbsp;&lt;/p&gt;&lt;p style=&quot;margin:0px;margin-left:4px;&quot;&gt;&lt;span style=&quot;white-space: pre;&quot;&gt;&#x9;&lt;/span&gt;TOptions options&lt;/p&gt;&lt;p style=&quot;margin:0px;margin-left:4px;&quot;&gt;):&amp;nbsp;&lt;span style=&quot;color: rgb(0, 64, 133); background-color: transparent;&quot;&gt;ValidateOptionsResult&lt;/span&gt;&lt;/p&gt;" style="verticalAlign=top;align=left;overflow=fill;html=1;whiteSpace=wrap;" parent="1" vertex="1">
          <mxGeometry x="1841" y="83" width="190" height="100" as="geometry" />
        </mxCell>
        <mxCell id="h_6TPCCMnjTKN2K01A-q-11" value="&lt;p style=&quot;margin:0px;margin-top:4px;text-align:center;&quot;&gt;&lt;span style=&quot;color: rgb(0, 64, 133); background-color: transparent; text-align: left;&quot;&gt;Options&lt;/span&gt;&lt;/p&gt;&lt;hr size=&quot;1&quot; style=&quot;border-style:solid;&quot;&gt;&lt;p style=&quot;margin:0px;margin-left:4px;&quot;&gt;&lt;span style=&quot;font-style: italic;&quot;&gt;DefaultName:&amp;nbsp;&lt;/span&gt;&lt;span style=&quot;color: rgb(255, 0, 0); background-color: transparent;&quot;&gt;string&lt;/span&gt;&lt;/p&gt;&lt;p style=&quot;margin:0px;margin-left:4px;&quot;&gt;&lt;span style=&quot;color: rgb(255, 0, 0); background-color: transparent;&quot;&gt;&lt;br&gt;&lt;/span&gt;&lt;/p&gt;&lt;p style=&quot;margin:0px;margin-left:4px;&quot;&gt;&lt;span style=&quot;color: rgb(25, 25, 112); font-weight: bold;&quot;&gt;Create&amp;lt;&lt;/span&gt;&lt;span style=&quot;background-color: transparent; color: light-dark(rgb(0, 0, 0), rgb(255, 255, 255));&quot;&gt;TOptions&lt;/span&gt;&lt;span style=&quot;color: rgb(25, 25, 112); font-weight: bold; background-color: transparent;&quot;&gt;&amp;gt;(&lt;/span&gt;&lt;/p&gt;&lt;p style=&quot;margin:0px;margin-left:4px;&quot;&gt;&lt;span style=&quot;color: rgb(25, 25, 112); font-weight: bold; background-color: transparent;&quot;&gt;)&lt;/span&gt;&lt;span style=&quot;background-color: transparent; color: rgb(25, 25, 112); font-weight: bold;&quot;&gt;:&amp;nbsp;&lt;/span&gt;&lt;span style=&quot;background-color: transparent; color: rgb(0, 64, 133);&quot;&gt;IOptions&lt;/span&gt;&lt;span style=&quot;background-color: transparent; color: light-dark(rgb(0, 0, 0), rgb(255, 255, 255));&quot;&gt;&amp;lt;TOptions&amp;gt;&lt;/span&gt;&lt;/p&gt;&lt;p style=&quot;margin:0px;margin-left:4px;&quot;&gt;&lt;span style=&quot;background-color: transparent; color: light-dark(rgb(0, 0, 0), rgb(255, 255, 255));&quot;&gt;&lt;br&gt;&lt;/span&gt;&lt;/p&gt;&lt;p style=&quot;margin:0px;margin-left:4px;&quot;&gt;&lt;span style=&quot;background-color: transparent; color: light-dark(rgb(0, 0, 0), rgb(255, 255, 255));&quot;&gt;&lt;br&gt;&lt;/span&gt;&lt;/p&gt;" style="verticalAlign=top;align=left;overflow=fill;html=1;whiteSpace=wrap;" parent="1" vertex="1">
          <mxGeometry x="3050" y="310" width="250" height="100" as="geometry" />
        </mxCell>
        <mxCell id="h_6TPCCMnjTKN2K01A-q-12" value="&lt;p style=&quot;margin:0px;margin-top:4px;text-align:center;&quot;&gt;&lt;span style=&quot;color: rgb(0, 64, 133);&quot;&gt;OptionsBuilder&lt;/span&gt;&amp;lt;TOptions&amp;gt;&lt;/p&gt;&lt;hr size=&quot;1&quot; style=&quot;border-style:solid;&quot;&gt;&lt;p style=&quot;margin:0px;margin-left:4px;&quot;&gt;&lt;span style=&quot;background-color: transparent; color: light-dark(rgb(0, 0, 0), rgb(255, 255, 255));&quot;&gt;Name&lt;/span&gt;&lt;span style=&quot;font-style: italic;&quot;&gt;:&amp;nbsp;&lt;/span&gt;&lt;span style=&quot;color: rgb(255, 0, 0); background-color: transparent;&quot;&gt;string&lt;/span&gt;&lt;/p&gt;&lt;p style=&quot;margin:0px;margin-left:4px;&quot;&gt;&lt;span style=&quot;color: rgb(255, 0, 0); background-color: transparent;&quot;&gt;Services:&amp;nbsp;&lt;/span&gt;&lt;span style=&quot;color: rgb(0, 64, 133); background-color: transparent;&quot;&gt;IServiceCollection&lt;/span&gt;&lt;/p&gt;&lt;p style=&quot;margin:0px;margin-left:4px;&quot;&gt;&lt;span style=&quot;color: rgb(255, 0, 0); background-color: transparent;&quot;&gt;&lt;br&gt;&lt;/span&gt;&lt;/p&gt;&lt;p style=&quot;margin:0px;margin-left:4px;&quot;&gt;&lt;span style=&quot;color: rgb(25, 25, 112); font-weight: bold;&quot;&gt;Configure&lt;/span&gt;&lt;/p&gt;&lt;p style=&quot;margin:0px;margin-left:4px;&quot;&gt;&lt;span style=&quot;color: rgb(25, 25, 112); font-weight: bold;&quot;&gt;PostConfigure&lt;/span&gt;&lt;span style=&quot;color: rgb(25, 25, 112); font-weight: bold;&quot;&gt;&lt;/span&gt;&lt;/p&gt;&lt;p style=&quot;margin:0px;margin-left:4px;&quot;&gt;&lt;span style=&quot;color: rgb(25, 25, 112); font-weight: bold;&quot;&gt;Validate&lt;/span&gt;&lt;span style=&quot;background-color: transparent; color: light-dark(rgb(0, 0, 0), rgb(255, 255, 255));&quot;&gt;&lt;/span&gt;&lt;/p&gt;&lt;p style=&quot;margin:0px;margin-left:4px;&quot;&gt;&lt;span style=&quot;background-color: transparent; color: light-dark(rgb(0, 0, 0), rgb(255, 255, 255));&quot;&gt;&lt;br&gt;&lt;/span&gt;&lt;/p&gt;" style="verticalAlign=top;align=left;overflow=fill;html=1;whiteSpace=wrap;" parent="1" vertex="1">
          <mxGeometry x="2496" y="250" width="230" height="130" as="geometry" />
        </mxCell>
        <mxCell id="h_6TPCCMnjTKN2K01A-q-13" value="&lt;p style=&quot;margin:0px;margin-top:4px;text-align:center;&quot;&gt;&lt;span style=&quot;background-color: transparent; text-align: left; color: rgb(0, 64, 133);&quot;&gt;ConfigureNamedOptions&lt;/span&gt;&lt;span style=&quot;background-color: transparent; color: light-dark(rgb(0, 0, 0), rgb(255, 255, 255)); text-align: left;&quot;&gt;&amp;lt;TOptions&amp;gt;&lt;/span&gt;&lt;/p&gt;&lt;hr size=&quot;1&quot; style=&quot;border-style:solid;&quot;&gt;&lt;p style=&quot;margin:0px;margin-left:4px;&quot;&gt;Name:&amp;nbsp;&lt;span style=&quot;background-color: transparent; color: rgb(255, 0, 0);&quot;&gt;string&lt;/span&gt;&lt;span style=&quot;background-color: transparent; color: light-dark(rgb(0, 0, 0), rgb(255, 255, 255));&quot;&gt;?&lt;/span&gt;&lt;/p&gt;&lt;p style=&quot;margin:0px;margin-left:4px;&quot;&gt;Action:&amp;nbsp;&lt;span style=&quot;background-color: transparent; color: light-dark(rgb(0, 0, 0), rgb(255, 255, 255));&quot;&gt;&lt;/span&gt;&lt;span style=&quot;background-color: transparent; color: rgb(0, 64, 133);&quot;&gt;Action&lt;/span&gt;&lt;span style=&quot;background-color: transparent; color: light-dark(rgb(0, 0, 0), rgb(255, 255, 255));&quot;&gt;&amp;lt;TOptions&amp;gt;?&lt;/span&gt;&lt;/p&gt;&lt;p style=&quot;margin:0px;margin-left:4px;&quot;&gt;&lt;span style=&quot;background-color: transparent; color: light-dark(rgb(0, 0, 0), rgb(255, 255, 255));&quot;&gt;&lt;br&gt;&lt;/span&gt;&lt;/p&gt;&lt;p style=&quot;margin:0px;margin-left:4px;&quot;&gt;&lt;span style=&quot;color: rgb(0, 64, 133);&quot;&gt;IConfigureNamedOptions.&lt;/span&gt;&lt;span style=&quot;color: rgb(25, 25, 112); font-weight: 700; background-color: transparent;&quot;&gt;Configure()&lt;/span&gt;&lt;/p&gt;&lt;p style=&quot;margin:0px;margin-left:4px;&quot;&gt;&lt;span style=&quot;color: rgb(25, 25, 112); font-weight: 700; background-color: transparent;&quot;&gt;&lt;span style=&quot;color: rgb(0, 64, 133); font-weight: 400;&quot;&gt;IConfigureOptions.&lt;/span&gt;&lt;/span&gt;&lt;span style=&quot;color: rgb(25, 25, 112); font-weight: 700; background-color: transparent;&quot;&gt;Configure()&lt;/span&gt;&lt;/p&gt;&lt;p style=&quot;margin:0px;margin-left:4px;&quot;&gt;&lt;span style=&quot;background-color: transparent; color: light-dark(rgb(0, 0, 0), rgb(255, 255, 255));&quot;&gt;&lt;br&gt;&lt;/span&gt;&lt;/p&gt;&lt;p style=&quot;margin:0px;margin-left:4px;&quot;&gt;&lt;span style=&quot;background-color: transparent; color: light-dark(rgb(0, 0, 0), rgb(255, 255, 255));&quot;&gt;&lt;br&gt;&lt;/span&gt;&lt;/p&gt;" style="verticalAlign=top;align=left;overflow=fill;html=1;whiteSpace=wrap;" parent="1" vertex="1">
          <mxGeometry x="1154" y="247" width="230" height="120" as="geometry" />
        </mxCell>
        <mxCell id="h_6TPCCMnjTKN2K01A-q-14" value="" style="endArrow=block;dashed=1;endFill=0;endSize=12;html=1;rounded=0;entryX=0.5;entryY=1;entryDx=0;entryDy=0;" parent="1" source="h_6TPCCMnjTKN2K01A-q-13" target="U1-uT79BPtRjiYRfhZJT-1" edge="1">
          <mxGeometry width="160" relative="1" as="geometry">
            <mxPoint x="1354" y="377" as="sourcePoint" />
            <mxPoint x="1514" y="377" as="targetPoint" />
          </mxGeometry>
        </mxCell>
        <mxCell id="h_6TPCCMnjTKN2K01A-q-15" value="" style="endArrow=block;dashed=1;endFill=0;endSize=12;html=1;rounded=0;entryX=0.5;entryY=1;entryDx=0;entryDy=0;exitX=0.75;exitY=0;exitDx=0;exitDy=0;" parent="1" source="h_6TPCCMnjTKN2K01A-q-13" target="h_6TPCCMnjTKN2K01A-q-1" edge="1">
          <mxGeometry width="160" relative="1" as="geometry">
            <mxPoint x="1544" y="497" as="sourcePoint" />
            <mxPoint x="1523" y="267" as="targetPoint" />
          </mxGeometry>
        </mxCell>
        <mxCell id="c7WiFoTxp8OJaLhZJY_V-1" value="&lt;p style=&quot;margin:0px;margin-top:4px;text-align:center;&quot;&gt;&lt;span style=&quot;color: rgb(0, 64, 133); background-color: transparent; text-align: left;&quot;&gt;IServiceCollection&lt;/span&gt;&lt;/p&gt;&lt;hr size=&quot;1&quot; style=&quot;border-style:solid;&quot;&gt;&lt;p style=&quot;margin:0px;margin-left:4px;&quot;&gt;&lt;br&gt;&lt;/p&gt;" style="verticalAlign=top;align=left;overflow=fill;html=1;whiteSpace=wrap;" parent="1" vertex="1">
          <mxGeometry x="40" y="560" width="150" height="40" as="geometry" />
        </mxCell>
        <mxCell id="c7WiFoTxp8OJaLhZJY_V-2" value="&lt;p style=&quot;margin:0px;margin-top:4px;text-align:center;&quot;&gt;&lt;span style=&quot;color: rgb(0, 64, 133);&quot;&gt;OptionsServiceCollectionExtensions&lt;/span&gt;&lt;/p&gt;&lt;hr size=&quot;1&quot; style=&quot;border-style:solid;&quot;&gt;&lt;p style=&quot;margin:0px;margin-left:4px;&quot;&gt;&lt;span style=&quot;color: rgb(25, 25, 112); font-weight: bold;&quot;&gt;AddOptions():&amp;nbsp;&lt;/span&gt;&lt;span style=&quot;color: rgb(0, 64, 133); background-color: transparent;&quot;&gt;&lt;i&gt;IServiceCollection&lt;/i&gt;&lt;/span&gt;&lt;/p&gt;&lt;p style=&quot;margin:0px;margin-left:4px;&quot;&gt;&lt;span style=&quot;color: rgb(0, 64, 133); background-color: transparent;&quot;&gt;&lt;span style=&quot;color: rgb(25, 25, 112); font-weight: bold;&quot;&gt;AddOptions&lt;/span&gt;&amp;lt;TOptions&amp;gt;():&amp;nbsp;&lt;/span&gt;&lt;i&gt;&lt;span style=&quot;background-color: transparent; color: rgb(0, 64, 133);&quot;&gt;OptionsBuilder&lt;/span&gt;&lt;span style=&quot;background-color: transparent; color: light-dark(rgb(0, 0, 0), rgb(255, 255, 255));&quot;&gt;&amp;lt;TOptions&amp;gt;&lt;/span&gt;&lt;/i&gt;&lt;/p&gt;&lt;p style=&quot;margin:0px;margin-left:4px;&quot;&gt;&lt;span style=&quot;background-color: transparent; color: rgb(0, 64, 133);&quot;&gt;&lt;span style=&quot;color: rgb(25, 25, 112); font-weight: bold;&quot;&gt;AddOptions&lt;/span&gt;&amp;lt;TOptions&amp;gt;(&lt;/span&gt;&lt;span style=&quot;background-color: transparent; color: rgb(255, 0, 0);&quot;&gt;string&lt;/span&gt;&lt;span style=&quot;background-color: transparent; color: light-dark(rgb(0, 0, 0), rgb(255, 255, 255));&quot;&gt;? &lt;/span&gt;&lt;span style=&quot;background-color: transparent; color: light-dark(rgb(0, 0, 0), rgb(255, 255, 255));&quot;&gt;name&lt;/span&gt;&lt;span style=&quot;background-color: transparent; color: rgb(0, 64, 133);&quot;&gt;):&amp;nbsp;&lt;/span&gt;&lt;i style=&quot;background-color: transparent; color: light-dark(rgb(0, 0, 0), rgb(255, 255, 255));&quot;&gt;&lt;span style=&quot;background-color: transparent; color: rgb(0, 64, 133);&quot;&gt;OptionsBuilder&lt;/span&gt;&lt;span style=&quot;background-color: transparent; color: light-dark(rgb(0, 0, 0), rgb(255, 255, 255));&quot;&gt;&amp;lt;TOptions&amp;gt;&lt;/span&gt;&lt;/i&gt;&lt;/p&gt;&lt;p style=&quot;margin:0px;margin-left:4px;&quot;&gt;&lt;span style=&quot;color: rgb(0, 64, 133); background-color: transparent;&quot;&gt;&lt;br&gt;&lt;/span&gt;&lt;/p&gt;&lt;p style=&quot;margin:0px;margin-left:4px;&quot;&gt;&lt;span style=&quot;color: rgb(25, 25, 112); font-weight: bold;&quot;&gt;AddOptionsWithValidateOnStart&amp;lt;TOptions&amp;gt;(&lt;/span&gt;&lt;span style=&quot;background-color: transparent; color: rgb(25, 25, 112); font-weight: bold;&quot;&gt;&lt;span style=&quot;color: rgb(255, 0, 0); font-weight: normal;&quot;&gt;string&lt;/span&gt;?&amp;nbsp;&lt;/span&gt;&lt;span style=&quot;background-color: transparent; color: light-dark(rgb(0, 0, 0), rgb(255, 255, 255));&quot;&gt;name&lt;/span&gt;&lt;span style=&quot;background-color: transparent; color: light-dark(rgb(25, 25, 112), rgb(205, 205, 255)); font-weight: bold;&quot;&gt;):&amp;nbsp;&lt;/span&gt;&lt;i&gt;&lt;span style=&quot;background-color: transparent; color: rgb(0, 64, 133);&quot;&gt;OptionsBuilder&lt;/span&gt;&lt;span style=&quot;background-color: transparent; color: light-dark(rgb(0, 0, 0), rgb(255, 255, 255));&quot;&gt;&amp;lt;TOptions&amp;gt;&lt;/span&gt;&lt;/i&gt;&lt;/p&gt;&lt;p style=&quot;margin:0px;margin-left:4px;&quot;&gt;&lt;span style=&quot;color: rgb(25, 25, 112); font-weight: bold;&quot;&gt;AddOptionsWithValidateOnStart&amp;lt;&lt;/span&gt;&lt;span style=&quot;background-color: transparent; color: light-dark(rgb(0, 0, 0), rgb(255, 255, 255));&quot;&gt;TOptions,&amp;nbsp;&lt;/span&gt;&lt;span style=&quot;background-color: transparent; color: light-dark(rgb(0, 0, 0), rgb(255, 255, 255));&quot;&gt;TValidateOptions&lt;/span&gt;&lt;span style=&quot;background-color: transparent; color: rgb(25, 25, 112); font-weight: bold;&quot;&gt;&amp;gt;&lt;/span&gt;&lt;span style=&quot;background-color: transparent; color: rgb(25, 25, 112); font-weight: bold;&quot;&gt;(&lt;/span&gt;&lt;span style=&quot;background-color: transparent; color: rgb(25, 25, 112); font-weight: bold;&quot;&gt;&lt;span style=&quot;color: rgb(255, 0, 0); font-weight: normal;&quot;&gt;string&lt;/span&gt;?&amp;nbsp;&lt;/span&gt;&lt;span style=&quot;background-color: transparent; color: light-dark(rgb(0, 0, 0), rgb(255, 255, 255));&quot;&gt;name&lt;/span&gt;&lt;span style=&quot;background-color: transparent; color: light-dark(rgb(25, 25, 112), rgb(205, 205, 255)); font-weight: bold;&quot;&gt;):&amp;nbsp;&lt;/span&gt;&lt;i&gt;&lt;span style=&quot;background-color: transparent; color: rgb(0, 64, 133);&quot;&gt;OptionsBuilder&lt;/span&gt;&lt;span style=&quot;background-color: transparent; color: light-dark(rgb(0, 0, 0), rgb(255, 255, 255));&quot;&gt;&amp;lt;TOptions&amp;gt;&lt;/span&gt;&lt;/i&gt;&lt;/p&gt;&lt;p style=&quot;margin:0px;margin-left:4px;&quot;&gt;&lt;span style=&quot;background-color: transparent; color: light-dark(rgb(0, 0, 0), rgb(255, 255, 255));&quot;&gt;&lt;br&gt;&lt;/span&gt;&lt;/p&gt;&lt;p style=&quot;margin:0px;margin-left:4px;&quot;&gt;&lt;span style=&quot;color: rgb(25, 25, 112); font-weight: bold;&quot;&gt;Configure&lt;/span&gt;&amp;lt;TOptions&amp;gt;&lt;span style=&quot;background-color: transparent; color: light-dark(rgb(0, 0, 0), rgb(255, 255, 255));&quot;&gt;&lt;/span&gt;&lt;span style=&quot;background-color: transparent; color: light-dark(rgb(0, 0, 0), rgb(255, 255, 255));&quot;&gt;(&lt;/span&gt;&lt;span style=&quot;background-color: transparent; color: rgb(0, 64, 133);&quot;&gt;Action&lt;/span&gt;&lt;span style=&quot;background-color: transparent; color: light-dark(rgb(0, 0, 0), rgb(255, 255, 255));&quot;&gt;&amp;lt;TOptions&amp;gt; &lt;/span&gt;&lt;span style=&quot;background-color: transparent; color: light-dark(rgb(0, 0, 0), rgb(255, 255, 255));&quot;&gt;configureOptions&lt;/span&gt;&lt;span style=&quot;background-color: transparent; color: light-dark(rgb(0, 0, 0), rgb(255, 255, 255));&quot;&gt;):&lt;i&gt;&amp;nbsp;&lt;/i&gt;&lt;/span&gt;&lt;span style=&quot;color: rgb(0, 64, 133); background-color: transparent;&quot;&gt;&lt;i&gt;IServiceCollection&lt;/i&gt;&lt;/span&gt;&lt;/p&gt;&lt;p style=&quot;margin:0px;margin-left:4px;&quot;&gt;&lt;span style=&quot;color: rgb(25, 25, 112); font-weight: bold;&quot;&gt;Configure&lt;/span&gt;&amp;lt;TOptions&amp;gt;&lt;span style=&quot;color: light-dark(rgb(0, 0, 0), rgb(255, 255, 255)); background-color: transparent;&quot;&gt;&lt;/span&gt;&lt;span style=&quot;color: light-dark(rgb(0, 0, 0), rgb(255, 255, 255)); background-color: transparent;&quot;&gt;(&lt;/span&gt;&lt;span style=&quot;background-color: transparent; color: rgb(255, 0, 0);&quot;&gt;string&lt;/span&gt;&lt;span style=&quot;background-color: transparent; color: light-dark(rgb(0, 0, 0), rgb(255, 255, 255));&quot;&gt;? &lt;/span&gt;&lt;span style=&quot;background-color: transparent; color: light-dark(rgb(0, 0, 0), rgb(255, 255, 255));&quot;&gt;name,&amp;nbsp;&lt;/span&gt;&lt;span style=&quot;background-color: transparent; color: rgb(0, 64, 133);&quot;&gt;Action&lt;/span&gt;&lt;span style=&quot;background-color: transparent; color: light-dark(rgb(0, 0, 0), rgb(255, 255, 255));&quot;&gt;&amp;lt;TOptions&amp;gt;&amp;nbsp;&lt;/span&gt;&lt;span style=&quot;background-color: transparent; color: light-dark(rgb(0, 0, 0), rgb(255, 255, 255));&quot;&gt;configureOptions&lt;/span&gt;&lt;span style=&quot;background-color: transparent; color: light-dark(rgb(0, 0, 0), rgb(255, 255, 255));&quot;&gt;):&lt;i&gt;&amp;nbsp;&lt;/i&gt;&lt;/span&gt;&lt;span style=&quot;background-color: transparent; color: rgb(0, 64, 133);&quot;&gt;&lt;i&gt;IServiceCollection&lt;/i&gt;&lt;/span&gt;&lt;/p&gt;&lt;p style=&quot;margin:0px;margin-left:4px;&quot;&gt;&lt;span style=&quot;color: rgb(25, 25, 112); font-weight: bold;&quot;&gt;ConfigureAll&lt;/span&gt;&amp;lt;TOptions&amp;gt;&lt;span style=&quot;color: light-dark(rgb(0, 0, 0), rgb(255, 255, 255)); background-color: transparent;&quot;&gt;&lt;/span&gt;&lt;span style=&quot;color: light-dark(rgb(0, 0, 0), rgb(255, 255, 255)); background-color: transparent;&quot;&gt;(&lt;/span&gt;&lt;span style=&quot;background-color: transparent; color: rgb(0, 64, 133);&quot;&gt;Action&lt;/span&gt;&lt;span style=&quot;color: light-dark(rgb(0, 0, 0), rgb(255, 255, 255)); background-color: transparent;&quot;&gt;&amp;lt;TOptions&amp;gt;&amp;nbsp;&lt;/span&gt;&lt;span style=&quot;color: light-dark(rgb(0, 0, 0), rgb(255, 255, 255)); background-color: transparent;&quot;&gt;configureOptions&lt;/span&gt;&lt;span style=&quot;color: light-dark(rgb(0, 0, 0), rgb(255, 255, 255)); background-color: transparent;&quot;&gt;):&lt;i&gt;&amp;nbsp;&lt;/i&gt;&lt;/span&gt;&lt;span style=&quot;background-color: transparent; color: rgb(0, 64, 133);&quot;&gt;&lt;i&gt;IServiceCollection&lt;/i&gt;&lt;/span&gt;&lt;span style=&quot;background-color: transparent; color: rgb(0, 64, 133);&quot;&gt;&lt;i&gt;&lt;/i&gt;&lt;/span&gt;&lt;/p&gt;&lt;p style=&quot;margin:0px;margin-left:4px;&quot;&gt;&lt;span style=&quot;background-color: transparent; color: rgb(0, 64, 133);&quot;&gt;&lt;i&gt;&lt;br&gt;&lt;/i&gt;&lt;/span&gt;&lt;/p&gt;&lt;p style=&quot;margin:0px;margin-left:4px;&quot;&gt;&lt;span style=&quot;color: rgb(25, 25, 112); font-weight: bold; background-color: transparent;&quot;&gt;PostConfigure&lt;/span&gt;&amp;lt;TOptions&amp;gt;&lt;span style=&quot;color: light-dark(rgb(0, 0, 0), rgb(255, 255, 255)); background-color: transparent;&quot;&gt;&lt;/span&gt;&lt;span style=&quot;color: light-dark(rgb(0, 0, 0), rgb(255, 255, 255)); background-color: transparent;&quot;&gt;(&lt;/span&gt;&lt;span style=&quot;background-color: transparent; color: rgb(0, 64, 133);&quot;&gt;Action&lt;/span&gt;&lt;span style=&quot;color: light-dark(rgb(0, 0, 0), rgb(255, 255, 255)); background-color: transparent;&quot;&gt;&amp;lt;TOptions&amp;gt;&amp;nbsp;&lt;/span&gt;&lt;span style=&quot;color: light-dark(rgb(0, 0, 0), rgb(255, 255, 255)); background-color: transparent;&quot;&gt;configureOptions&lt;/span&gt;&lt;span style=&quot;color: light-dark(rgb(0, 0, 0), rgb(255, 255, 255)); background-color: transparent;&quot;&gt;):&lt;i&gt;&amp;nbsp;&lt;/i&gt;&lt;/span&gt;&lt;span style=&quot;background-color: transparent; color: rgb(0, 64, 133);&quot;&gt;&lt;i&gt;IServiceCollection&lt;/i&gt;&lt;/span&gt;&lt;span style=&quot;background-color: transparent; color: rgb(0, 64, 133);&quot;&gt;&lt;i&gt;&lt;/i&gt;&lt;/span&gt;&lt;/p&gt;&lt;p style=&quot;margin:0px;margin-left:4px;&quot;&gt;&lt;span style=&quot;background-color: transparent; color: rgb(25, 25, 112); font-weight: bold;&quot;&gt;PostConfigure&lt;/span&gt;&amp;lt;TOptions&amp;gt;&lt;span style=&quot;color: light-dark(rgb(0, 0, 0), rgb(255, 255, 255)); background-color: transparent;&quot;&gt;&lt;/span&gt;&lt;span style=&quot;color: light-dark(rgb(0, 0, 0), rgb(255, 255, 255)); background-color: transparent;&quot;&gt;(&lt;/span&gt;&lt;span style=&quot;background-color: transparent; color: rgb(255, 0, 0);&quot;&gt;string&lt;/span&gt;&lt;span style=&quot;background-color: transparent; color: light-dark(rgb(0, 0, 0), rgb(255, 255, 255));&quot;&gt;?&amp;nbsp;&lt;/span&gt;&lt;span style=&quot;background-color: transparent; color: light-dark(rgb(0, 0, 0), rgb(255, 255, 255));&quot;&gt;name,&amp;nbsp;&lt;/span&gt;&lt;span style=&quot;background-color: transparent; color: rgb(0, 64, 133);&quot;&gt;Action&lt;/span&gt;&lt;span style=&quot;background-color: transparent; color: light-dark(rgb(0, 0, 0), rgb(255, 255, 255));&quot;&gt;&amp;lt;TOptions&amp;gt;&amp;nbsp;&lt;/span&gt;&lt;span style=&quot;background-color: transparent; color: light-dark(rgb(0, 0, 0), rgb(255, 255, 255));&quot;&gt;configureOptions&lt;/span&gt;&lt;span style=&quot;background-color: transparent; color: light-dark(rgb(0, 0, 0), rgb(255, 255, 255));&quot;&gt;):&lt;i&gt;&amp;nbsp;&lt;/i&gt;&lt;/span&gt;&lt;span style=&quot;background-color: transparent; color: rgb(0, 64, 133);&quot;&gt;&lt;i&gt;IServiceCollection&lt;/i&gt;&lt;/span&gt;&lt;/p&gt;&lt;p style=&quot;margin:0px;margin-left:4px;&quot;&gt;&lt;span style=&quot;background-color: transparent; color: rgb(25, 25, 112); font-weight: bold;&quot;&gt;PostConfigureAll&lt;/span&gt;&amp;lt;TOptions&amp;gt;&lt;span style=&quot;color: light-dark(rgb(0, 0, 0), rgb(255, 255, 255)); background-color: transparent;&quot;&gt;&lt;/span&gt;&lt;span style=&quot;color: light-dark(rgb(0, 0, 0), rgb(255, 255, 255)); background-color: transparent;&quot;&gt;(&lt;/span&gt;&lt;span style=&quot;background-color: transparent; color: rgb(0, 64, 133);&quot;&gt;Action&lt;/span&gt;&lt;span style=&quot;color: light-dark(rgb(0, 0, 0), rgb(255, 255, 255)); background-color: transparent;&quot;&gt;&amp;lt;TOptions&amp;gt;&amp;nbsp;&lt;/span&gt;&lt;span style=&quot;color: light-dark(rgb(0, 0, 0), rgb(255, 255, 255)); background-color: transparent;&quot;&gt;configureOptions&lt;/span&gt;&lt;span style=&quot;color: light-dark(rgb(0, 0, 0), rgb(255, 255, 255)); background-color: transparent;&quot;&gt;):&lt;i&gt;&amp;nbsp;&lt;/i&gt;&lt;/span&gt;&lt;span style=&quot;background-color: transparent; color: rgb(0, 64, 133);&quot;&gt;&lt;i&gt;IServiceCollection&lt;/i&gt;&lt;/span&gt;&lt;span style=&quot;background-color: transparent; color: rgb(0, 64, 133);&quot;&gt;&lt;i&gt;&lt;/i&gt;&lt;/span&gt;&lt;/p&gt;&lt;p style=&quot;margin:0px;margin-left:4px;&quot;&gt;&lt;span style=&quot;background-color: transparent; color: rgb(0, 64, 133);&quot;&gt;&lt;i&gt;&lt;br&gt;&lt;/i&gt;&lt;/span&gt;&lt;/p&gt;&lt;p style=&quot;margin:0px;margin-left:4px;&quot;&gt;&lt;span style=&quot;background-color: transparent; color: rgb(0, 64, 133);&quot;&gt;&lt;span style=&quot;color: rgb(25, 25, 112); font-weight: bold;&quot;&gt;ConfigureOptions&lt;/span&gt;&amp;lt;TConfigureOptions&amp;gt;():&amp;nbsp;&lt;i&gt;&lt;/i&gt;&lt;/span&gt;&lt;i style=&quot;background-color: transparent; color: rgb(0, 64, 133);&quot;&gt;IServiceCollection&lt;/i&gt;&lt;/p&gt;&lt;p style=&quot;margin:0px;margin-left:4px;&quot;&gt;&lt;span style=&quot;color: rgb(25, 25, 112); font-weight: bold;&quot;&gt;ConfigureOptions(&lt;/span&gt;&lt;span style=&quot;background-color: transparent; color: rgb(0, 64, 133);&quot;&gt;Type&lt;/span&gt;&lt;span style=&quot;background-color: transparent; color: light-dark(rgb(0, 0, 0), rgb(255, 255, 255));&quot;&gt; &lt;/span&gt;&lt;span style=&quot;background-color: transparent; color: light-dark(rgb(0, 0, 0), rgb(255, 255, 255));&quot;&gt;configureType&lt;/span&gt;&lt;span style=&quot;color: rgb(25, 25, 112); font-weight: bold; background-color: transparent;&quot;&gt;):&amp;nbsp;&lt;/span&gt;&lt;i style=&quot;background-color: transparent; color: rgb(0, 64, 133);&quot;&gt;IServiceCollection&lt;/i&gt;&lt;/p&gt;&lt;p style=&quot;margin:0px;margin-left:4px;&quot;&gt;&lt;span style=&quot;color: rgb(25, 25, 112); font-weight: bold;&quot;&gt;ConfigureOptions(&lt;/span&gt;&lt;span style=&quot;color: rgb(255, 0, 0);&quot;&gt;object&lt;/span&gt; configureInstance&lt;span style=&quot;background-color: transparent; color: rgb(25, 25, 112); font-weight: bold;&quot;&gt;):&amp;nbsp;&lt;/span&gt;&lt;i style=&quot;background-color: transparent; color: rgb(0, 64, 133);&quot;&gt;IServiceCollection&lt;/i&gt;&lt;i style=&quot;background-color: transparent; color: rgb(0, 64, 133);&quot;&gt;&lt;/i&gt;&lt;/p&gt;&lt;p style=&quot;margin:0px;margin-left:4px;&quot;&gt;&lt;i style=&quot;background-color: transparent; color: rgb(0, 64, 133);&quot;&gt;&lt;br&gt;&lt;/i&gt;&lt;/p&gt;" style="verticalAlign=top;align=left;overflow=fill;html=1;whiteSpace=wrap;" parent="1" vertex="1">
          <mxGeometry x="120" y="670" width="590" height="300" as="geometry" />
        </mxCell>
        <mxCell id="c7WiFoTxp8OJaLhZJY_V-4" value="" style="endArrow=diamondThin;endFill=1;endSize=24;html=1;rounded=0;entryX=0;entryY=0;entryDx=0;entryDy=0;exitX=0.547;exitY=0.975;exitDx=0;exitDy=0;exitPerimeter=0;" parent="1" source="c7WiFoTxp8OJaLhZJY_V-1" target="c7WiFoTxp8OJaLhZJY_V-2" edge="1">
          <mxGeometry width="160" relative="1" as="geometry">
            <mxPoint x="310" y="1000" as="sourcePoint" />
            <mxPoint x="470" y="1000" as="targetPoint" />
          </mxGeometry>
        </mxCell>
        <mxCell id="c7WiFoTxp8OJaLhZJY_V-14" value="&lt;p style=&quot;margin:0px;margin-top:4px;text-align:center;&quot;&gt;&lt;span style=&quot;color: rgb(25, 25, 112); font-weight: 700; text-align: left;&quot;&gt;AddOptions()&lt;/span&gt;&lt;/p&gt;&lt;hr size=&quot;1&quot; style=&quot;border-style:solid;&quot;&gt;&lt;p style=&quot;margin:0px;margin-left:4px;&quot;&gt;services.&lt;span style=&quot;color: rgb(25, 25, 112); font-weight: bold;&quot;&gt;TryAdd&lt;/span&gt;(&lt;span style=&quot;color: rgb(0, 64, 133);&quot;&gt;ServiceDescriptor&lt;/span&gt;.&lt;span style=&quot;color: rgb(25, 25, 112); font-weight: bold;&quot;&gt;Singleton&lt;/span&gt;(&lt;span style=&quot;color: rgb(0, 139, 139); font-weight: bold;&quot;&gt;typeof&lt;/span&gt;(&lt;span style=&quot;color: rgb(0, 64, 133);&quot;&gt;IOptions&lt;/span&gt;&amp;lt;&amp;gt;), &lt;span style=&quot;color: rgb(0, 139, 139); font-weight: bold;&quot;&gt;typeof&lt;/span&gt;(&lt;span style=&quot;color: rgb(0, 64, 133);&quot;&gt;UnnamedOptionsManager&lt;/span&gt;&amp;lt;&amp;gt;)));&lt;br&gt;services.&lt;span style=&quot;color: rgb(25, 25, 112); font-weight: bold;&quot;&gt;TryAdd&lt;/span&gt;(&lt;span style=&quot;color: rgb(0, 64, 133);&quot;&gt;ServiceDescriptor&lt;/span&gt;.&lt;span style=&quot;color: rgb(25, 25, 112); font-weight: bold;&quot;&gt;Scoped&lt;/span&gt;(&lt;span style=&quot;color: rgb(0, 139, 139); font-weight: bold;&quot;&gt;typeof&lt;/span&gt;(&lt;span style=&quot;color: rgb(0, 64, 133);&quot;&gt;IOptionsSnapshot&lt;/span&gt;&amp;lt;&amp;gt;), &lt;span style=&quot;color: rgb(0, 139, 139); font-weight: bold;&quot;&gt;typeof&lt;/span&gt;(&lt;span style=&quot;color: rgb(0, 64, 133);&quot;&gt;OptionsManager&lt;/span&gt;&amp;lt;&amp;gt;)));&lt;br&gt;services.&lt;span style=&quot;color: rgb(25, 25, 112); font-weight: bold;&quot;&gt;TryAdd&lt;/span&gt;(&lt;span style=&quot;color: rgb(0, 64, 133);&quot;&gt;ServiceDescriptor&lt;/span&gt;.&lt;span style=&quot;color: rgb(25, 25, 112); font-weight: bold;&quot;&gt;Singleton&lt;/span&gt;(&lt;span style=&quot;color: rgb(0, 139, 139); font-weight: bold;&quot;&gt;typeof&lt;/span&gt;(&lt;span style=&quot;color: rgb(0, 64, 133);&quot;&gt;IOptionsMonitor&lt;/span&gt;&amp;lt;&amp;gt;), &lt;span style=&quot;color: rgb(0, 139, 139); font-weight: bold;&quot;&gt;typeof&lt;/span&gt;(&lt;span style=&quot;color: rgb(0, 64, 133);&quot;&gt;OptionsMonitor&lt;/span&gt;&amp;lt;&amp;gt;)));&lt;br&gt;services.&lt;span style=&quot;color: rgb(25, 25, 112); font-weight: bold;&quot;&gt;TryAdd&lt;/span&gt;(&lt;span style=&quot;color: rgb(0, 64, 133);&quot;&gt;ServiceDescriptor&lt;/span&gt;.&lt;span style=&quot;color: rgb(25, 25, 112); font-weight: bold;&quot;&gt;Transient&lt;/span&gt;(&lt;span style=&quot;color: rgb(0, 139, 139); font-weight: bold;&quot;&gt;typeof&lt;/span&gt;(&lt;span style=&quot;color: rgb(0, 64, 133);&quot;&gt;IOptionsFactory&lt;/span&gt;&amp;lt;&amp;gt;), &lt;span style=&quot;color: rgb(0, 139, 139); font-weight: bold;&quot;&gt;typeof&lt;/span&gt;(&lt;span style=&quot;color: rgb(0, 64, 133);&quot;&gt;OptionsFactory&lt;/span&gt;&amp;lt;&amp;gt;)));&lt;br&gt;services.&lt;span style=&quot;color: rgb(25, 25, 112); font-weight: bold;&quot;&gt;TryAdd&lt;/span&gt;(&lt;span style=&quot;color: rgb(0, 64, 133);&quot;&gt;ServiceDescriptor&lt;/span&gt;.&lt;span style=&quot;color: rgb(25, 25, 112); font-weight: bold;&quot;&gt;Singleton&lt;/span&gt;(&lt;span style=&quot;color: rgb(0, 139, 139); font-weight: bold;&quot;&gt;typeof&lt;/span&gt;(&lt;span style=&quot;color: rgb(0, 64, 133);&quot;&gt;IOptionsMonitorCache&lt;/span&gt;&amp;lt;&amp;gt;), &lt;span style=&quot;color: rgb(0, 139, 139); font-weight: bold;&quot;&gt;typeof&lt;/span&gt;(&lt;span style=&quot;color: rgb(0, 64, 133);&quot;&gt;OptionsCache&lt;/span&gt;&amp;lt;&amp;gt;)));&lt;/p&gt;" style="verticalAlign=top;align=left;overflow=fill;html=1;whiteSpace=wrap;" parent="1" vertex="1">
          <mxGeometry x="125" y="1010" width="600" height="110" as="geometry" />
        </mxCell>
        <mxCell id="c7WiFoTxp8OJaLhZJY_V-15" value="&lt;p style=&quot;margin:0px;margin-top:4px;text-align:center;&quot;&gt;&lt;span style=&quot;color: rgb(0, 64, 133);&quot;&gt;UnnamedOptionsManager&amp;lt;&lt;/span&gt;&lt;span style=&quot;background-color: transparent; color: light-dark(rgb(0, 0, 0), rgb(255, 255, 255)); text-align: left;&quot;&gt;TOptions&lt;/span&gt;&lt;span style=&quot;color: rgb(0, 64, 133); background-color: transparent;&quot;&gt;&amp;gt;&lt;/span&gt;&lt;/p&gt;&lt;hr size=&quot;1&quot; style=&quot;border-style:solid;&quot;&gt;&lt;p style=&quot;margin:0px;margin-left:4px;&quot;&gt;&lt;br&gt;&lt;/p&gt;" style="verticalAlign=top;align=left;overflow=fill;html=1;whiteSpace=wrap;" parent="1" vertex="1">
          <mxGeometry x="43" y="252" width="223" height="60" as="geometry" />
        </mxCell>
        <mxCell id="c7WiFoTxp8OJaLhZJY_V-16" value="" style="endArrow=block;dashed=1;endFill=0;endSize=12;html=1;rounded=0;entryX=0.5;entryY=1;entryDx=0;entryDy=0;" parent="1" source="c7WiFoTxp8OJaLhZJY_V-15" target="h_6TPCCMnjTKN2K01A-q-2" edge="1">
          <mxGeometry width="160" relative="1" as="geometry">
            <mxPoint x="91" y="144" as="sourcePoint" />
            <mxPoint x="547" y="483" as="targetPoint" />
          </mxGeometry>
        </mxCell>
        <mxCell id="c7WiFoTxp8OJaLhZJY_V-17" value="&lt;p style=&quot;margin:0px;margin-top:4px;text-align:center;&quot;&gt;&lt;span style=&quot;color: rgb(0, 64, 133);&quot;&gt;&lt;span style=&quot;background-color: transparent; text-align: left;&quot;&gt;OptionsManager&lt;/span&gt;&amp;lt;&lt;/span&gt;&lt;span style=&quot;background-color: transparent; color: light-dark(rgb(0, 0, 0), rgb(255, 255, 255)); text-align: left;&quot;&gt;TOptions&lt;/span&gt;&lt;span style=&quot;color: rgb(0, 64, 133); background-color: transparent;&quot;&gt;&amp;gt;&lt;/span&gt;&lt;/p&gt;&lt;hr size=&quot;1&quot; style=&quot;border-style:solid;&quot;&gt;&lt;p style=&quot;margin:0px;margin-left:4px;&quot;&gt;&lt;br&gt;&lt;/p&gt;" style="verticalAlign=top;align=left;overflow=fill;html=1;whiteSpace=wrap;" parent="1" vertex="1">
          <mxGeometry x="291" y="252" width="210" height="59" as="geometry" />
        </mxCell>
        <mxCell id="c7WiFoTxp8OJaLhZJY_V-18" value="" style="endArrow=block;dashed=1;endFill=0;endSize=12;html=1;rounded=0;entryX=0.5;entryY=1;entryDx=0;entryDy=0;exitX=0.5;exitY=0;exitDx=0;exitDy=0;" parent="1" source="c7WiFoTxp8OJaLhZJY_V-17" target="h_6TPCCMnjTKN2K01A-q-7" edge="1">
          <mxGeometry width="160" relative="1" as="geometry">
            <mxPoint x="337" y="180" as="sourcePoint" />
            <mxPoint x="160" y="270" as="targetPoint" />
          </mxGeometry>
        </mxCell>
        <mxCell id="c7WiFoTxp8OJaLhZJY_V-19" value="&lt;p style=&quot;margin:0px;margin-top:4px;text-align:center;&quot;&gt;&lt;span style=&quot;color: rgb(0, 64, 133);&quot;&gt;&lt;span style=&quot;background-color: transparent;&quot;&gt;IOptionsMonitor&lt;/span&gt;&amp;lt;out&amp;nbsp;&lt;/span&gt;&lt;span style=&quot;background-color: transparent; color: light-dark(rgb(0, 0, 0), rgb(255, 255, 255)); text-align: left;&quot;&gt;TOptions&lt;/span&gt;&lt;span style=&quot;color: rgb(0, 64, 133); background-color: transparent;&quot;&gt;&amp;gt;&lt;/span&gt;&lt;/p&gt;&lt;hr size=&quot;1&quot; style=&quot;border-style:solid;&quot;&gt;&lt;p style=&quot;margin:0px;margin-left:4px;&quot;&gt;CurrentValue:&amp;nbsp;TOptions&lt;/p&gt;&lt;p style=&quot;margin:0px;margin-left:4px;&quot;&gt;&lt;br&gt;&lt;/p&gt;&lt;p style=&quot;margin: 0px 0px 0px 4px;&quot;&gt;&lt;span style=&quot;color: rgb(25, 25, 112); font-weight: bold;&quot;&gt;Get&lt;/span&gt;(&lt;span style=&quot;background-color: transparent; color: rgb(255, 0, 0);&quot;&gt;string&lt;/span&gt;&lt;span style=&quot;background-color: transparent; color: light-dark(rgb(0, 0, 0), rgb(255, 255, 255));&quot;&gt;? name&lt;/span&gt;&lt;span style=&quot;background-color: transparent; color: light-dark(rgb(0, 0, 0), rgb(255, 255, 255));&quot;&gt;):&amp;nbsp;TOptions&lt;/span&gt;&lt;/p&gt;&lt;p style=&quot;margin: 0px 0px 0px 4px;&quot;&gt;&lt;span style=&quot;color: rgb(25, 25, 112); font-weight: bold;&quot;&gt;OnChange&lt;/span&gt;(&lt;span style=&quot;background-color: transparent; color: rgb(0, 64, 133);&quot;&gt;Action&lt;/span&gt;&lt;span style=&quot;background-color: transparent; color: light-dark(rgb(0, 0, 0), rgb(255, 255, 255));&quot;&gt;&amp;lt;TOptions,&lt;/span&gt;&lt;span style=&quot;background-color: transparent; color: light-dark(rgb(0, 0, 0), rgb(255, 255, 255));&quot;&gt;&amp;nbsp;&lt;/span&gt;&lt;span style=&quot;background-color: transparent; color: rgb(255, 0, 0);&quot;&gt;string&lt;/span&gt;&lt;span style=&quot;background-color: transparent; color: light-dark(rgb(0, 0, 0), rgb(255, 255, 255));&quot;&gt;?&amp;gt; listener&lt;/span&gt;&lt;span style=&quot;background-color: transparent; color: light-dark(rgb(0, 0, 0), rgb(255, 255, 255));&quot;&gt;):&amp;nbsp;&lt;/span&gt;&lt;span style=&quot;background-color: transparent; color: rgb(0, 64, 133);&quot;&gt;IDisposable&lt;/span&gt;&lt;span style=&quot;background-color: transparent; color: light-dark(rgb(0, 0, 0), rgb(255, 255, 255));&quot;&gt;?&lt;/span&gt;&lt;/p&gt;" style="verticalAlign=top;align=left;overflow=fill;html=1;whiteSpace=wrap;" parent="1" vertex="1">
          <mxGeometry x="532" y="97" width="337" height="98" as="geometry" />
        </mxCell>
        <mxCell id="c7WiFoTxp8OJaLhZJY_V-21" value="&lt;p style=&quot;margin:0px;margin-top:4px;text-align:center;&quot;&gt;&lt;span style=&quot;color: rgb(0, 64, 133);&quot;&gt;OptionsFactory&amp;lt;&lt;/span&gt;&lt;span style=&quot;background-color: transparent; color: light-dark(rgb(0, 0, 0), rgb(255, 255, 255)); text-align: left;&quot;&gt;TOptions&lt;/span&gt;&lt;span style=&quot;color: rgb(0, 64, 133); background-color: transparent;&quot;&gt;&amp;gt;&lt;/span&gt;&lt;/p&gt;&lt;hr size=&quot;1&quot; style=&quot;border-style:solid;&quot;&gt;&lt;p style=&quot;margin:0px;margin-left:4px;&quot;&gt;&lt;br&gt;&lt;/p&gt;" style="verticalAlign=top;align=left;overflow=fill;html=1;whiteSpace=wrap;" parent="1" vertex="1">
          <mxGeometry x="-411" y="260" width="220" height="60" as="geometry" />
        </mxCell>
        <mxCell id="c7WiFoTxp8OJaLhZJY_V-22" value="" style="endArrow=block;dashed=1;endFill=0;endSize=12;html=1;rounded=0;entryX=0.5;entryY=1;entryDx=0;entryDy=0;" parent="1" source="c7WiFoTxp8OJaLhZJY_V-21" target="h_6TPCCMnjTKN2K01A-q-4" edge="1">
          <mxGeometry width="160" relative="1" as="geometry">
            <mxPoint x="-202" y="497" as="sourcePoint" />
            <mxPoint x="-571" y="357" as="targetPoint" />
          </mxGeometry>
        </mxCell>
        <mxCell id="c7WiFoTxp8OJaLhZJY_V-23" value="&lt;p style=&quot;margin:0px;margin-top:4px;text-align:center;&quot;&gt;&lt;span style=&quot;color: rgb(0, 64, 133);&quot;&gt;&lt;span style=&quot;background-color: transparent; text-align: left;&quot;&gt;OptionsCache&lt;/span&gt;&amp;lt;&lt;/span&gt;&lt;span style=&quot;background-color: transparent; color: light-dark(rgb(0, 0, 0), rgb(255, 255, 255)); text-align: left;&quot;&gt;TOptions&lt;/span&gt;&lt;span style=&quot;color: rgb(0, 64, 133); background-color: transparent;&quot;&gt;&amp;gt;&lt;/span&gt;&lt;/p&gt;&lt;hr size=&quot;1&quot; style=&quot;border-style:solid;&quot;&gt;&lt;p style=&quot;margin:0px;margin-left:4px;&quot;&gt;&lt;br&gt;&lt;/p&gt;" style="verticalAlign=top;align=left;overflow=fill;html=1;whiteSpace=wrap;" parent="1" vertex="1">
          <mxGeometry x="-711" y="260" width="240" height="60" as="geometry" />
        </mxCell>
        <mxCell id="c7WiFoTxp8OJaLhZJY_V-24" value="" style="endArrow=block;dashed=1;endFill=0;endSize=12;html=1;rounded=0;exitX=0.5;exitY=0;exitDx=0;exitDy=0;" parent="1" source="c7WiFoTxp8OJaLhZJY_V-23" target="h_6TPCCMnjTKN2K01A-q-6" edge="1">
          <mxGeometry width="160" relative="1" as="geometry">
            <mxPoint x="-426" y="219" as="sourcePoint" />
            <mxPoint x="-678" y="161" as="targetPoint" />
          </mxGeometry>
        </mxCell>
        <mxCell id="c7WiFoTxp8OJaLhZJY_V-26" value="&lt;p style=&quot;margin:0px;margin-top:4px;text-align:center;&quot;&gt;&lt;span style=&quot;text-align: left; background-color: transparent; color: rgb(0, 64, 133);&quot;&gt;&lt;span style=&quot;color: rgb(25, 25, 112); font-weight: bold;&quot;&gt;AddOptions&lt;/span&gt;&amp;lt;TOptions&amp;gt;():&amp;nbsp;&lt;/span&gt;&lt;i style=&quot;text-align: left;&quot;&gt;&lt;span style=&quot;background-color: transparent; color: rgb(0, 64, 133);&quot;&gt;OptionsBuilder&lt;/span&gt;&lt;span style=&quot;background-color: transparent; color: light-dark(rgb(0, 0, 0), rgb(255, 255, 255));&quot;&gt;&amp;lt;TOptions&amp;gt;&lt;/span&gt;&lt;/i&gt;&lt;/p&gt;&lt;hr size=&quot;1&quot; style=&quot;border-style:solid;&quot;&gt;&lt;p style=&quot;margin:0px;margin-left:4px;&quot;&gt;&lt;br&gt;&lt;/p&gt;" style="verticalAlign=top;align=left;overflow=fill;html=1;whiteSpace=wrap;" parent="1" vertex="1">
          <mxGeometry x="120" y="1200" width="390" height="50" as="geometry" />
        </mxCell>
        <mxCell id="c7WiFoTxp8OJaLhZJY_V-27" value="&lt;p style=&quot;margin:0px;margin-top:4px;text-align:center;&quot;&gt;&lt;span style=&quot;text-align: left; background-color: transparent; color: rgb(0, 64, 133);&quot;&gt;&lt;span style=&quot;color: rgb(25, 25, 112); font-weight: bold;&quot;&gt;AddOptions&lt;/span&gt;&amp;lt;TOptions&amp;gt;(&lt;/span&gt;&lt;span style=&quot;text-align: left; background-color: transparent; color: rgb(255, 0, 0);&quot;&gt;string&lt;/span&gt;&lt;span style=&quot;color: light-dark(rgb(0, 0, 0), rgb(255, 255, 255)); text-align: left; background-color: transparent;&quot;&gt;?&amp;nbsp;&lt;/span&gt;&lt;span style=&quot;color: light-dark(rgb(0, 0, 0), rgb(255, 255, 255)); text-align: left; background-color: transparent;&quot;&gt;name&lt;/span&gt;&lt;span style=&quot;text-align: left; background-color: transparent; color: rgb(0, 64, 133);&quot;&gt;):&amp;nbsp;&lt;/span&gt;&lt;i style=&quot;color: light-dark(rgb(0, 0, 0), rgb(255, 255, 255)); text-align: left; background-color: transparent;&quot;&gt;&lt;span style=&quot;background-color: transparent; color: rgb(0, 64, 133);&quot;&gt;OptionsBuilder&lt;/span&gt;&lt;span style=&quot;background-color: transparent; color: light-dark(rgb(0, 0, 0), rgb(255, 255, 255));&quot;&gt;&amp;lt;TOptions&amp;gt;&lt;/span&gt;&lt;/i&gt;&lt;/p&gt;&lt;hr size=&quot;1&quot; style=&quot;border-style:solid;&quot;&gt;&lt;p style=&quot;margin:0px;margin-left:4px;&quot;&gt;&lt;span style=&quot;color: rgb(0, 139, 139); font-weight: bold;&quot;&gt;&lt;span style=&quot;font-weight: normal;&quot;&gt;services&lt;/span&gt;.&lt;span style=&quot;color: rgb(25, 25, 112);&quot;&gt;AddOptions&lt;/span&gt;();&lt;/span&gt;&lt;/p&gt;&lt;p style=&quot;margin:0px;margin-left:4px;&quot;&gt;&lt;span style=&quot;color: rgb(0, 139, 139); font-weight: bold;&quot;&gt;new&lt;/span&gt; &lt;span style=&quot;color: rgb(0, 64, 133);&quot;&gt;OptionsBuilder&lt;/span&gt;&amp;lt;TOptions&amp;gt;(services, name)&lt;/p&gt;" style="verticalAlign=top;align=left;overflow=fill;html=1;whiteSpace=wrap;" parent="1" vertex="1">
          <mxGeometry x="120" y="1280" width="390" height="70" as="geometry" />
        </mxCell>
        <mxCell id="c7WiFoTxp8OJaLhZJY_V-28" value="" style="endArrow=open;endFill=1;endSize=12;html=1;rounded=0;entryX=0.5;entryY=1;entryDx=0;entryDy=0;exitX=0.5;exitY=0;exitDx=0;exitDy=0;" parent="1" source="c7WiFoTxp8OJaLhZJY_V-27" target="c7WiFoTxp8OJaLhZJY_V-26" edge="1">
          <mxGeometry width="160" relative="1" as="geometry">
            <mxPoint x="890" y="1300" as="sourcePoint" />
            <mxPoint x="470" y="1230" as="targetPoint" />
          </mxGeometry>
        </mxCell>
        <mxCell id="c7WiFoTxp8OJaLhZJY_V-29" value="&lt;p style=&quot;margin:0px;margin-top:4px;text-align:center;&quot;&gt;&lt;span style=&quot;text-align: left; color: rgb(25, 25, 112); font-weight: bold;&quot;&gt;AddOptionsWithValidateOnStart&amp;lt;TOptions&amp;gt;(&lt;/span&gt;&lt;span style=&quot;text-align: left; background-color: transparent; color: rgb(25, 25, 112); font-weight: bold;&quot;&gt;&lt;span style=&quot;color: rgb(255, 0, 0); font-weight: normal;&quot;&gt;string&lt;/span&gt;?&amp;nbsp;&lt;/span&gt;&lt;span style=&quot;color: light-dark(rgb(0, 0, 0), rgb(255, 255, 255)); text-align: left; background-color: transparent;&quot;&gt;name&lt;/span&gt;&lt;span style=&quot;text-align: left; background-color: transparent; color: light-dark(rgb(25, 25, 112), rgb(205, 205, 255)); font-weight: bold;&quot;&gt;):&amp;nbsp;&lt;/span&gt;&lt;i style=&quot;text-align: left;&quot;&gt;&lt;span style=&quot;background-color: transparent; color: rgb(0, 64, 133);&quot;&gt;OptionsBuilder&lt;/span&gt;&lt;span style=&quot;background-color: transparent; color: light-dark(rgb(0, 0, 0), rgb(255, 255, 255));&quot;&gt;&amp;lt;TOptions&amp;gt;&lt;/span&gt;&lt;/i&gt;&lt;/p&gt;&lt;hr size=&quot;1&quot; style=&quot;border-style:solid;&quot;&gt;&lt;p style=&quot;margin:0px;margin-left:4px;&quot;&gt;&lt;span style=&quot;color: rgb(0, 139, 139); font-weight: bold;&quot;&gt;new&lt;/span&gt; &lt;span style=&quot;color: rgb(0, 64, 133);&quot;&gt;OptionsBuilder&lt;/span&gt;&amp;lt;TOptions&amp;gt;(services, name).&lt;span style=&quot;color: rgb(25, 25, 112); font-weight: bold;&quot;&gt;ValidateOnStart&lt;/span&gt;()&lt;/p&gt;" style="verticalAlign=top;align=left;overflow=fill;html=1;whiteSpace=wrap;" parent="1" vertex="1">
          <mxGeometry x="590" y="1200" width="680" height="50" as="geometry" />
        </mxCell>
        <mxCell id="c7WiFoTxp8OJaLhZJY_V-30" value="&lt;p style=&quot;margin:0px;margin-top:4px;text-align:center;&quot;&gt;&lt;span style=&quot;text-align: left; color: rgb(25, 25, 112); font-weight: bold;&quot;&gt;AddOptionsWithValidateOnStart&amp;lt;&lt;/span&gt;&lt;span style=&quot;color: light-dark(rgb(0, 0, 0), rgb(255, 255, 255)); text-align: left; background-color: transparent;&quot;&gt;TOptions,&amp;nbsp;&lt;/span&gt;&lt;span style=&quot;color: light-dark(rgb(0, 0, 0), rgb(255, 255, 255)); text-align: left; background-color: transparent;&quot;&gt;TValidateOptions&lt;/span&gt;&lt;span style=&quot;text-align: left; background-color: transparent; color: rgb(25, 25, 112); font-weight: bold;&quot;&gt;&amp;gt;&lt;/span&gt;&lt;span style=&quot;text-align: left; background-color: transparent; color: rgb(25, 25, 112); font-weight: bold;&quot;&gt;(&lt;/span&gt;&lt;span style=&quot;text-align: left; background-color: transparent; color: rgb(25, 25, 112); font-weight: bold;&quot;&gt;&lt;span style=&quot;color: rgb(255, 0, 0); font-weight: normal;&quot;&gt;string&lt;/span&gt;?&amp;nbsp;&lt;/span&gt;&lt;span style=&quot;color: light-dark(rgb(0, 0, 0), rgb(255, 255, 255)); text-align: left; background-color: transparent;&quot;&gt;name&lt;/span&gt;&lt;span style=&quot;text-align: left; background-color: transparent; color: light-dark(rgb(25, 25, 112), rgb(205, 205, 255)); font-weight: bold;&quot;&gt;):&amp;nbsp;&lt;/span&gt;&lt;i style=&quot;text-align: left;&quot;&gt;&lt;span style=&quot;background-color: transparent; color: rgb(0, 64, 133);&quot;&gt;OptionsBuilder&lt;/span&gt;&lt;span style=&quot;background-color: transparent; color: light-dark(rgb(0, 0, 0), rgb(255, 255, 255));&quot;&gt;&amp;lt;TOptions&amp;gt;&lt;/span&gt;&lt;/i&gt;&lt;/p&gt;&lt;hr size=&quot;1&quot; style=&quot;border-style:solid;&quot;&gt;&lt;p style=&quot;margin:0px;margin-left:4px;&quot;&gt;services.&lt;span style=&quot;color: rgb(25, 25, 112); font-weight: bold;&quot;&gt;AddOptions&lt;/span&gt;().&lt;span style=&quot;color: rgb(25, 25, 112); font-weight: bold;&quot;&gt;TryAddEnumerable&lt;/span&gt;(&lt;span style=&quot;color: rgb(0, 64, 133);&quot;&gt;ServiceDescriptor&lt;/span&gt;.&lt;span style=&quot;color: rgb(25, 25, 112); font-weight: bold;&quot;&gt;Singleton&lt;/span&gt;&amp;lt;&lt;span style=&quot;color: rgb(0, 64, 133);&quot;&gt;IValidateOptions&lt;/span&gt;&amp;lt;TOptions&amp;gt;, TValidateOptions&amp;gt;());&lt;br&gt;&lt;span style=&quot;color: rgb(0, 139, 139); font-weight: bold;&quot;&gt;new&lt;/span&gt; &lt;span style=&quot;color: rgb(0, 64, 133);&quot;&gt;OptionsBuilder&lt;/span&gt;&amp;lt;TOptions&amp;gt;(services, name).&lt;span style=&quot;color: rgb(25, 25, 112); font-weight: bold;&quot;&gt;ValidateOnStart&lt;/span&gt;();&lt;/p&gt;" style="verticalAlign=top;align=left;overflow=fill;html=1;whiteSpace=wrap;" parent="1" vertex="1">
          <mxGeometry x="590" y="1280" width="680" height="70" as="geometry" />
        </mxCell>
        <mxCell id="c7WiFoTxp8OJaLhZJY_V-31" value="&lt;p style=&quot;margin:0px;margin-top:4px;text-align:center;&quot;&gt;&lt;span style=&quot;text-align: left; color: rgb(25, 25, 112); font-weight: bold;&quot;&gt;Configure&lt;/span&gt;&lt;span style=&quot;text-align: left;&quot;&gt;&amp;lt;TOptions&amp;gt;&lt;/span&gt;&lt;span style=&quot;color: light-dark(rgb(0, 0, 0), rgb(255, 255, 255)); text-align: left; background-color: transparent;&quot;&gt;&lt;/span&gt;&lt;span style=&quot;color: light-dark(rgb(0, 0, 0), rgb(255, 255, 255)); text-align: left; background-color: transparent;&quot;&gt;(&lt;/span&gt;&lt;span style=&quot;text-align: left; background-color: transparent; color: rgb(0, 64, 133);&quot;&gt;Action&lt;/span&gt;&lt;span style=&quot;color: light-dark(rgb(0, 0, 0), rgb(255, 255, 255)); text-align: left; background-color: transparent;&quot;&gt;&amp;lt;TOptions&amp;gt;&amp;nbsp;&lt;/span&gt;&lt;span style=&quot;color: light-dark(rgb(0, 0, 0), rgb(255, 255, 255)); text-align: left; background-color: transparent;&quot;&gt;configureOptions&lt;/span&gt;&lt;span style=&quot;color: light-dark(rgb(0, 0, 0), rgb(255, 255, 255)); text-align: left; background-color: transparent;&quot;&gt;)&lt;/span&gt;&lt;/p&gt;&lt;hr size=&quot;1&quot; style=&quot;border-style:solid;&quot;&gt;&lt;p style=&quot;margin:0px;margin-left:4px;&quot;&gt;services.&lt;span style=&quot;color: rgb(25, 25, 112); font-weight: bold;&quot;&gt;Configure&lt;/span&gt;(&lt;span style=&quot;font-style: italic;&quot;&gt;DefaultName&lt;/span&gt;, configureOptions)&lt;/p&gt;" style="verticalAlign=top;align=left;overflow=fill;html=1;whiteSpace=wrap;" parent="1" vertex="1">
          <mxGeometry x="120" y="1400" width="360" height="50" as="geometry" />
        </mxCell>
        <mxCell id="c7WiFoTxp8OJaLhZJY_V-32" value="&lt;p style=&quot;margin:0px;margin-top:4px;text-align:center;&quot;&gt;&lt;span style=&quot;text-align: left; color: rgb(25, 25, 112); font-weight: bold;&quot;&gt;Configure&lt;/span&gt;&lt;span style=&quot;text-align: left;&quot;&gt;&amp;lt;TOptions&amp;gt;&lt;/span&gt;&lt;span style=&quot;color: light-dark(rgb(0, 0, 0), rgb(255, 255, 255)); text-align: left; background-color: transparent;&quot;&gt;&lt;/span&gt;&lt;span style=&quot;color: light-dark(rgb(0, 0, 0), rgb(255, 255, 255)); text-align: left; background-color: transparent;&quot;&gt;(&lt;/span&gt;&lt;span style=&quot;text-align: left; background-color: transparent; color: rgb(255, 0, 0);&quot;&gt;string&lt;/span&gt;&lt;span style=&quot;color: light-dark(rgb(0, 0, 0), rgb(255, 255, 255)); text-align: left; background-color: transparent;&quot;&gt;?&amp;nbsp;&lt;/span&gt;&lt;span style=&quot;color: light-dark(rgb(0, 0, 0), rgb(255, 255, 255)); text-align: left; background-color: transparent;&quot;&gt;name,&amp;nbsp;&lt;/span&gt;&lt;span style=&quot;text-align: left; background-color: transparent; color: rgb(0, 64, 133);&quot;&gt;Action&lt;/span&gt;&lt;span style=&quot;color: light-dark(rgb(0, 0, 0), rgb(255, 255, 255)); text-align: left; background-color: transparent;&quot;&gt;&amp;lt;TOptions&amp;gt;&amp;nbsp;&lt;/span&gt;&lt;span style=&quot;color: light-dark(rgb(0, 0, 0), rgb(255, 255, 255)); text-align: left; background-color: transparent;&quot;&gt;configureOptions&lt;/span&gt;&lt;span style=&quot;color: light-dark(rgb(0, 0, 0), rgb(255, 255, 255)); text-align: left; background-color: transparent;&quot;&gt;)&lt;/span&gt;&lt;/p&gt;&lt;hr size=&quot;1&quot; style=&quot;border-style:solid;&quot;&gt;&lt;p style=&quot;margin:0px;margin-left:4px;&quot;&gt;services.&lt;span style=&quot;color: rgb(25, 25, 112); font-weight: bold;&quot;&gt;AddOptions&lt;/span&gt;();&lt;br&gt;services.&lt;span style=&quot;color: rgb(25, 25, 112); font-weight: bold;&quot;&gt;AddSingleton&lt;/span&gt;((&lt;span style=&quot;color: rgb(0, 64, 133);&quot;&gt;IConfigureOptions&lt;/span&gt;&amp;lt;TOptions&amp;gt;)&lt;span style=&quot;color: rgb(0, 139, 139); font-weight: bold;&quot;&gt;new&lt;/span&gt; &lt;span style=&quot;color: rgb(0, 64, 133);&quot;&gt;ConfigureNamedOptions&lt;/span&gt;&amp;lt;TOptions&amp;gt;(name, configureOptions));&lt;/p&gt;" style="verticalAlign=top;align=left;overflow=fill;html=1;whiteSpace=wrap;" parent="1" vertex="1">
          <mxGeometry x="120" y="1510" width="760" height="70" as="geometry" />
        </mxCell>
        <mxCell id="c7WiFoTxp8OJaLhZJY_V-33" value="" style="endArrow=open;endFill=1;endSize=12;html=1;rounded=0;entryX=0.75;entryY=1;entryDx=0;entryDy=0;exitX=0.5;exitY=0;exitDx=0;exitDy=0;" parent="1" source="c7WiFoTxp8OJaLhZJY_V-32" target="c7WiFoTxp8OJaLhZJY_V-31" edge="1">
          <mxGeometry width="160" relative="1" as="geometry">
            <mxPoint x="325" y="1290" as="sourcePoint" />
            <mxPoint x="325" y="1260" as="targetPoint" />
          </mxGeometry>
        </mxCell>
        <mxCell id="c7WiFoTxp8OJaLhZJY_V-34" value="&lt;p style=&quot;margin:0px;margin-top:4px;text-align:center;&quot;&gt;&lt;span style=&quot;text-align: left; color: rgb(25, 25, 112); font-weight: bold;&quot;&gt;ConfigureAll&lt;/span&gt;&lt;span style=&quot;text-align: left;&quot;&gt;&amp;lt;TOptions&amp;gt;&lt;/span&gt;&lt;span style=&quot;color: light-dark(rgb(0, 0, 0), rgb(255, 255, 255)); text-align: left; background-color: transparent;&quot;&gt;&lt;/span&gt;&lt;span style=&quot;color: light-dark(rgb(0, 0, 0), rgb(255, 255, 255)); text-align: left; background-color: transparent;&quot;&gt;(&lt;/span&gt;&lt;span style=&quot;text-align: left; background-color: transparent; color: rgb(0, 64, 133);&quot;&gt;Action&lt;/span&gt;&lt;span style=&quot;color: light-dark(rgb(0, 0, 0), rgb(255, 255, 255)); text-align: left; background-color: transparent;&quot;&gt;&amp;lt;TOptions&amp;gt;&amp;nbsp;&lt;/span&gt;&lt;span style=&quot;color: light-dark(rgb(0, 0, 0), rgb(255, 255, 255)); text-align: left; background-color: transparent;&quot;&gt;configureOptions&lt;/span&gt;&lt;span style=&quot;color: light-dark(rgb(0, 0, 0), rgb(255, 255, 255)); text-align: left; background-color: transparent;&quot;&gt;)&lt;/span&gt;&lt;/p&gt;&lt;hr size=&quot;1&quot; style=&quot;border-style:solid;&quot;&gt;&lt;p style=&quot;margin:0px;margin-left:4px;&quot;&gt;services.&lt;span style=&quot;color: rgb(25, 25, 112); font-weight: bold;&quot;&gt;Configure&lt;/span&gt;(&lt;i&gt;null&lt;/i&gt;, configureOptions)&lt;/p&gt;" style="verticalAlign=top;align=left;overflow=fill;html=1;whiteSpace=wrap;" parent="1" vertex="1">
          <mxGeometry x="520" y="1400" width="360" height="50" as="geometry" />
        </mxCell>
        <mxCell id="c7WiFoTxp8OJaLhZJY_V-35" value="" style="endArrow=open;endFill=1;endSize=12;html=1;rounded=0;entryX=0.25;entryY=1;entryDx=0;entryDy=0;exitX=0.5;exitY=0;exitDx=0;exitDy=0;" parent="1" source="c7WiFoTxp8OJaLhZJY_V-32" target="c7WiFoTxp8OJaLhZJY_V-34" edge="1">
          <mxGeometry width="160" relative="1" as="geometry">
            <mxPoint x="470" y="1510" as="sourcePoint" />
            <mxPoint x="470" y="1460" as="targetPoint" />
          </mxGeometry>
        </mxCell>
        <mxCell id="fjZRiA-PiTVjuLWSakp2-1" value="&lt;p style=&quot;margin:0px;margin-top:4px;text-align:center;&quot;&gt;&lt;span style=&quot;text-align: left; color: rgb(25, 25, 112); font-weight: bold;&quot;&gt;PostConfigure&lt;/span&gt;&lt;span style=&quot;text-align: left;&quot;&gt;&amp;lt;TOptions&amp;gt;&lt;/span&gt;&lt;span style=&quot;color: light-dark(rgb(0, 0, 0), rgb(255, 255, 255)); text-align: left; background-color: transparent;&quot;&gt;&lt;/span&gt;&lt;span style=&quot;color: light-dark(rgb(0, 0, 0), rgb(255, 255, 255)); text-align: left; background-color: transparent;&quot;&gt;(&lt;/span&gt;&lt;span style=&quot;text-align: left; background-color: transparent; color: rgb(0, 64, 133);&quot;&gt;Action&lt;/span&gt;&lt;span style=&quot;color: light-dark(rgb(0, 0, 0), rgb(255, 255, 255)); text-align: left; background-color: transparent;&quot;&gt;&amp;lt;TOptions&amp;gt;&amp;nbsp;&lt;/span&gt;&lt;span style=&quot;color: light-dark(rgb(0, 0, 0), rgb(255, 255, 255)); text-align: left; background-color: transparent;&quot;&gt;configureOptions&lt;/span&gt;&lt;span style=&quot;color: light-dark(rgb(0, 0, 0), rgb(255, 255, 255)); text-align: left; background-color: transparent;&quot;&gt;)&lt;/span&gt;&lt;/p&gt;&lt;hr size=&quot;1&quot; style=&quot;border-style:solid;&quot;&gt;&lt;p style=&quot;margin:0px;margin-left:4px;&quot;&gt;services.Post&lt;span style=&quot;color: rgb(25, 25, 112); font-weight: bold;&quot;&gt;Configure&lt;/span&gt;(&lt;span style=&quot;font-style: italic;&quot;&gt;DefaultName&lt;/span&gt;, configureOptions)&lt;/p&gt;" style="verticalAlign=top;align=left;overflow=fill;html=1;whiteSpace=wrap;" parent="1" vertex="1">
          <mxGeometry x="920" y="1400" width="360" height="50" as="geometry" />
        </mxCell>
        <mxCell id="fjZRiA-PiTVjuLWSakp2-2" value="&lt;p style=&quot;margin:0px;margin-top:4px;text-align:center;&quot;&gt;&lt;span style=&quot;text-align: left; color: rgb(25, 25, 112); font-weight: bold;&quot;&gt;PostConfigure&lt;/span&gt;&lt;span style=&quot;text-align: left;&quot;&gt;&amp;lt;TOptions&amp;gt;&lt;/span&gt;&lt;span style=&quot;color: light-dark(rgb(0, 0, 0), rgb(255, 255, 255)); text-align: left; background-color: transparent;&quot;&gt;&lt;/span&gt;&lt;span style=&quot;color: light-dark(rgb(0, 0, 0), rgb(255, 255, 255)); text-align: left; background-color: transparent;&quot;&gt;(&lt;/span&gt;&lt;span style=&quot;text-align: left; background-color: transparent; color: rgb(255, 0, 0);&quot;&gt;string&lt;/span&gt;&lt;span style=&quot;color: light-dark(rgb(0, 0, 0), rgb(255, 255, 255)); text-align: left; background-color: transparent;&quot;&gt;?&amp;nbsp;&lt;/span&gt;&lt;span style=&quot;color: light-dark(rgb(0, 0, 0), rgb(255, 255, 255)); text-align: left; background-color: transparent;&quot;&gt;name,&amp;nbsp;&lt;/span&gt;&lt;span style=&quot;text-align: left; background-color: transparent; color: rgb(0, 64, 133);&quot;&gt;Action&lt;/span&gt;&lt;span style=&quot;color: light-dark(rgb(0, 0, 0), rgb(255, 255, 255)); text-align: left; background-color: transparent;&quot;&gt;&amp;lt;TOptions&amp;gt;&amp;nbsp;&lt;/span&gt;&lt;span style=&quot;color: light-dark(rgb(0, 0, 0), rgb(255, 255, 255)); text-align: left; background-color: transparent;&quot;&gt;configureOptions&lt;/span&gt;&lt;span style=&quot;color: light-dark(rgb(0, 0, 0), rgb(255, 255, 255)); text-align: left; background-color: transparent;&quot;&gt;)&lt;/span&gt;&lt;/p&gt;&lt;hr size=&quot;1&quot; style=&quot;border-style:solid;&quot;&gt;&lt;p style=&quot;margin:0px;margin-left:4px;&quot;&gt;services.&lt;span style=&quot;color: rgb(25, 25, 112); font-weight: bold;&quot;&gt;AddOptions&lt;/span&gt;();&lt;br&gt;services.&lt;span style=&quot;color: rgb(25, 25, 112); font-weight: bold;&quot;&gt;AddSingleton&lt;/span&gt;((&lt;span style=&quot;color: rgb(0, 64, 133);&quot;&gt;IPostConfigureOptions&lt;/span&gt;&amp;lt;TOptions&amp;gt;)&lt;span style=&quot;color: rgb(0, 139, 139); font-weight: bold;&quot;&gt;new&lt;/span&gt; &lt;span style=&quot;color: rgb(0, 64, 133);&quot;&gt;PostConfigureOptions&lt;/span&gt;&amp;lt;TOptions&amp;gt;(name, configureOptions));&lt;/p&gt;" style="verticalAlign=top;align=left;overflow=fill;html=1;whiteSpace=wrap;" parent="1" vertex="1">
          <mxGeometry x="920" y="1510" width="760" height="70" as="geometry" />
        </mxCell>
        <mxCell id="fjZRiA-PiTVjuLWSakp2-3" value="" style="endArrow=open;endFill=1;endSize=12;html=1;rounded=0;entryX=0.75;entryY=1;entryDx=0;entryDy=0;exitX=0.5;exitY=0;exitDx=0;exitDy=0;" parent="1" source="fjZRiA-PiTVjuLWSakp2-2" target="fjZRiA-PiTVjuLWSakp2-1" edge="1">
          <mxGeometry width="160" relative="1" as="geometry">
            <mxPoint x="1125" y="1290" as="sourcePoint" />
            <mxPoint x="1125" y="1260" as="targetPoint" />
          </mxGeometry>
        </mxCell>
        <mxCell id="fjZRiA-PiTVjuLWSakp2-4" value="&lt;p style=&quot;margin:0px;margin-top:4px;text-align:center;&quot;&gt;&lt;span style=&quot;text-align: left; color: rgb(25, 25, 112); font-weight: bold;&quot;&gt;PostConfigureAll&lt;/span&gt;&lt;span style=&quot;text-align: left;&quot;&gt;&amp;lt;TOptions&amp;gt;&lt;/span&gt;&lt;span style=&quot;color: light-dark(rgb(0, 0, 0), rgb(255, 255, 255)); text-align: left; background-color: transparent;&quot;&gt;&lt;/span&gt;&lt;span style=&quot;color: light-dark(rgb(0, 0, 0), rgb(255, 255, 255)); text-align: left; background-color: transparent;&quot;&gt;(&lt;/span&gt;&lt;span style=&quot;text-align: left; background-color: transparent; color: rgb(0, 64, 133);&quot;&gt;Action&lt;/span&gt;&lt;span style=&quot;color: light-dark(rgb(0, 0, 0), rgb(255, 255, 255)); text-align: left; background-color: transparent;&quot;&gt;&amp;lt;TOptions&amp;gt;&amp;nbsp;&lt;/span&gt;&lt;span style=&quot;color: light-dark(rgb(0, 0, 0), rgb(255, 255, 255)); text-align: left; background-color: transparent;&quot;&gt;configureOptions&lt;/span&gt;&lt;span style=&quot;color: light-dark(rgb(0, 0, 0), rgb(255, 255, 255)); text-align: left; background-color: transparent;&quot;&gt;)&lt;/span&gt;&lt;/p&gt;&lt;hr size=&quot;1&quot; style=&quot;border-style:solid;&quot;&gt;&lt;p style=&quot;margin:0px;margin-left:4px;&quot;&gt;services.Post&lt;span style=&quot;color: rgb(25, 25, 112); font-weight: bold;&quot;&gt;Configure&lt;/span&gt;(&lt;i&gt;null&lt;/i&gt;, configureOptions)&lt;/p&gt;" style="verticalAlign=top;align=left;overflow=fill;html=1;whiteSpace=wrap;" parent="1" vertex="1">
          <mxGeometry x="1320" y="1400" width="360" height="50" as="geometry" />
        </mxCell>
        <mxCell id="fjZRiA-PiTVjuLWSakp2-5" value="" style="endArrow=open;endFill=1;endSize=12;html=1;rounded=0;entryX=0.25;entryY=1;entryDx=0;entryDy=0;exitX=0.5;exitY=0;exitDx=0;exitDy=0;" parent="1" source="fjZRiA-PiTVjuLWSakp2-2" target="fjZRiA-PiTVjuLWSakp2-4" edge="1">
          <mxGeometry width="160" relative="1" as="geometry">
            <mxPoint x="1270" y="1510" as="sourcePoint" />
            <mxPoint x="1270" y="1460" as="targetPoint" />
          </mxGeometry>
        </mxCell>
        <mxCell id="fjZRiA-PiTVjuLWSakp2-6" value="&lt;p style=&quot;margin:0px;margin-top:4px;text-align:center;&quot;&gt;&lt;span style=&quot;color: rgb(0, 64, 133);&quot;&gt;PostConfigureOptions&lt;/span&gt;&amp;lt;TOptions&amp;gt;&lt;/p&gt;&lt;hr size=&quot;1&quot; style=&quot;border-style:solid;&quot;&gt;&lt;p style=&quot;margin:0px;margin-left:4px;&quot;&gt;Name:&amp;nbsp;&lt;span style=&quot;background-color: transparent; color: rgb(255, 0, 0);&quot;&gt;string&lt;/span&gt;&lt;span style=&quot;background-color: transparent; color: light-dark(rgb(0, 0, 0), rgb(255, 255, 255));&quot;&gt;?&lt;/span&gt;&lt;/p&gt;&lt;p style=&quot;margin:0px;margin-left:4px;&quot;&gt;Action:&amp;nbsp;&lt;span style=&quot;background-color: transparent; color: light-dark(rgb(0, 0, 0), rgb(255, 255, 255));&quot;&gt;&lt;/span&gt;&lt;span style=&quot;background-color: transparent; color: rgb(0, 64, 133);&quot;&gt;Action&lt;/span&gt;&lt;span style=&quot;background-color: transparent; color: light-dark(rgb(0, 0, 0), rgb(255, 255, 255));&quot;&gt;&amp;lt;TOptions&amp;gt;?&lt;/span&gt;&lt;/p&gt;&lt;p style=&quot;margin:0px;margin-left:4px;&quot;&gt;&lt;br&gt;&lt;/p&gt;&lt;p style=&quot;margin:0px;margin-left:4px;&quot;&gt;&lt;span style=&quot;color: rgb(25, 25, 112); font-weight: 700; background-color: transparent;&quot;&gt;&lt;span style=&quot;color: rgb(0, 64, 133); font-weight: 400;&quot;&gt;IPostConfigureOptions.&lt;/span&gt;&lt;/span&gt;&lt;span style=&quot;color: rgb(25, 25, 112); font-weight: 700; background-color: transparent;&quot;&gt;Configure()&lt;/span&gt;&lt;/p&gt;&lt;p style=&quot;margin:0px;margin-left:4px;&quot;&gt;&lt;span style=&quot;background-color: transparent; color: light-dark(rgb(0, 0, 0), rgb(255, 255, 255));&quot;&gt;&lt;br&gt;&lt;/span&gt;&lt;/p&gt;&lt;p style=&quot;margin:0px;margin-left:4px;&quot;&gt;&lt;span style=&quot;background-color: transparent; color: light-dark(rgb(0, 0, 0), rgb(255, 255, 255));&quot;&gt;&lt;br&gt;&lt;/span&gt;&lt;/p&gt;" style="verticalAlign=top;align=left;overflow=fill;html=1;whiteSpace=wrap;" parent="1" vertex="1">
          <mxGeometry x="1557" y="247" width="230" height="110" as="geometry" />
        </mxCell>
        <mxCell id="fjZRiA-PiTVjuLWSakp2-7" value="" style="endArrow=block;dashed=1;endFill=0;endSize=12;html=1;rounded=0;entryX=0.5;entryY=1;entryDx=0;entryDy=0;exitX=0.5;exitY=0;exitDx=0;exitDy=0;" parent="1" source="fjZRiA-PiTVjuLWSakp2-6" target="h_6TPCCMnjTKN2K01A-q-8" edge="1">
          <mxGeometry width="160" relative="1" as="geometry">
            <mxPoint x="1290" y="257" as="sourcePoint" />
            <mxPoint x="1377" y="197" as="targetPoint" />
          </mxGeometry>
        </mxCell>
        <mxCell id="0hj7FqH4pXDxejOpazDL-2" value="" style="endArrow=block;dashed=1;endFill=0;endSize=12;html=1;rounded=0;entryX=0.5;entryY=1;entryDx=0;entryDy=0;exitX=0.5;exitY=0;exitDx=0;exitDy=0;" edge="1" parent="1" source="h_6TPCCMnjTKN2K01A-q-5" target="c7WiFoTxp8OJaLhZJY_V-19">
          <mxGeometry width="160" relative="1" as="geometry">
            <mxPoint x="406" y="262" as="sourcePoint" />
            <mxPoint x="406" y="205" as="targetPoint" />
          </mxGeometry>
        </mxCell>
      </root>
    </mxGraphModel>
  </diagram>
</mxfile>
